<?xml version="1.0" standalone="no"?>
<!DOCTYPE svg PUBLIC "-//W3C//DTD SVG 1.1//EN" "http://www.w3.org/Graphics/SVG/1.1/DTD/svg11.dtd" >
<svg xmlns="http://www.w3.org/2000/svg">
<metadata>Generated by IcoMoon</metadata>
<defs>
<font id="icomoon" horiz-adv-x="1024">
<font-face units-per-em="1024" ascent="960" descent="-64" />
<missing-glyph horiz-adv-x="1024" />
<glyph unicode="&#x20;" horiz-adv-x="512" d="" />
<glyph unicode="&#xe600;" glyph-name="active" d="M795.454 448.74l-573.402-333.864v667.73z" />
<glyph unicode="&#xe601;" glyph-name="add" d="M841.184 531.418h-248.976v248.974h-166.202v-248.974h-248.97v-166.208h248.97v-248.976h166.202v248.976h248.976z" />
<glyph unicode="&#xe602;" glyph-name="android_search" d="M938.848 149.378l-162.046 162.064c-14.27 14.252-40.046 12.888-65.938-0.598l-70.726 70.638c92.132 120.328 83.418 293.086-26.692 403.21-119.798 119.782-314.178 119.782-434.052 0-119.822-119.91-119.822-314.236 0-434.072 110.158-110.070 282.938-118.768 403.232-26.652l70.652-70.658c-13.488-25.886-14.848-51.704-0.578-65.972l162.062-162.064c20.406-20.46 64.868-9.222 99.11 25.108 34.18 34.168 45.452 78.556 24.976 98.996zM225.054 396.208c-94.624 94.732-94.624 248.208 0 342.812 94.692 94.71 248.042 94.64 342.806 0 94.624-94.604 94.624-248.046 0-342.812-94.764-94.602-248.19-94.602-342.806 0z" />
<glyph unicode="&#xe603;" glyph-name="apply" d="M911.152 473.5l-259.428 260.73v-122.656c-518.866 0-559.552-306.674-559.552-368.002 111.914 245.346 559.552 122.762 559.552 122.762v-122.762l259.428 229.928z" />
<glyph unicode="&#xe604;" glyph-name="approved" d="M523.984 480.492c0-32.088 5.962-58.076 38.056-58.076h177.176c32.086 0 38.044 25.988 38.044 58.076 0 32.092-5.958 58.1-38.044 58.1h-177.176c-32.090 0-38.056-26.008-38.056-58.1zM491.818 342.8c0-32.070 5.974-58.102 38.034-58.102h237.108c32.094 0 38.070 26.032 38.070 58.102 0 32.086-5.976 58.094-38.070 58.094h-237.108c-32.058 0-38.034-26.008-38.034-58.094zM523.546 203c0-32.066 5.976-58.072 38.030-58.072h187.040c32.086 0 38.068 26.006 38.068 58.072 0 32.11-5.982 58.1-38.068 58.1h-187.040c-32.052 0-38.030-25.99-38.030-58.1zM554.416 60.28c0-32.068 5.974-58.078 38.042-58.078h106.542c32.066 0 38.052 26.010 38.052 58.078 0 32.108-5.986 58.102-38.052 58.102h-106.542c-32.066-0.004-38.042-25.998-38.042-58.102zM539.638 9.362c-6.516 12.444-9.42 28.148-9.42 50.918 0 22.786 2.904 38.502 9.42 50.942 2.252 4.316 5.342 8.88 9.498 13.080-22.61 2.958-34.378 16.33-40.378 27.79-6.512 12.444-9.406 28.142-9.406 50.912 0 22.788 2.894 38.496 9.406 50.948 1.782 3.39 4.080 6.952 7.002 10.37-21.536 3.376-32.88 16.388-38.732 27.56-6.514 12.446-9.418 28.152-9.418 50.926 0 22.776 2.904 38.484 9.418 50.934 5.748 10.968 16.822 23.704 37.638 27.352-2.204 2.818-4.014 5.708-5.466 8.476-6.514 12.44-9.42 28.148-9.42 50.928 0 22.786 2.906 38.494 9.42 50.938 6.79 12.958 20.952 28.41 49.89 28.41h36.122c3.718 26.92 78.228 84.486 78.228 202.206 0 129.022-137.248 114.114-137.248 114.114v-80.088c-24.076-89.266-183.86-227.074-229.118-264.71-53.564-27.354-86.85-80.792-86.85-146.666v-196.402c0-101.644 82.398-184.040 184.032-184.040h138.4c-1.142 1.712-2.146 3.428-3.018 5.102z" />
<glyph unicode="&#xe605;" glyph-name="archive" d="M126.62 580.262h769.926v165.428h-769.926v-165.428zM180.444 150.426h662.276v382.348h-662.276v-382.348zM452.716 442.286h117.726c23.354 0 42.318-18.996 42.318-42.406 0-23.38-18.964-42.32-42.318-42.32h-117.726c-23.41 0-42.376 18.94-42.376 42.32 0 23.41 18.966 42.406 42.376 42.406z" />
<glyph unicode="&#xe606;" glyph-name="arrowdown" d="M381.148 851.154v-361.508h-239.070l366.448-443.996 366.448 443.996h-239.078v361.508z" />
<glyph unicode="&#xe607;" glyph-name="arrowleft" d="M911.282 575.776h-361.508v239.072l-443.994-366.448 443.994-366.448v239.076h361.508z" />
<glyph unicode="&#xe608;" glyph-name="arrowright" d="M105.778 321.022h361.508v-239.070l443.996 366.448-443.996 366.448v-239.076h-361.508z" />
<glyph unicode="&#xe609;" glyph-name="arrowup" d="M635.904 45.648v361.508h239.072l-366.448 443.996-366.45-443.996h239.078v-361.508z" />
<glyph unicode="&#xe60a;" glyph-name="asset" d="M637.36 294.292v0c1.868 0 3.726-0.138 5.554-0.176l-343.966 437.898c-23.084 29.348-57.788 44.76-92.204 44.696-25.126 0.064-50.958-8.162-72.288-24.984l-107.654-84.612 68.032-86.538 107.618 84.572c1.336 1.022 2.538 1.41 4.294 1.48 2.392-0.072 4.292-0.942 5.596-2.602l321.058-408.654c27.978 24.276 64.476 38.886 103.96 38.92zM919.608 478.84l-241.708-189.792c39.068-10.276 71.694-34.806 92.734-67.188l216.96 170.408-67.986 86.572zM650.028 239.804c-4.258 0.57-8.478 0.804-12.668 0.804-52.436 0-97.762-39.23-104.166-92.58-6.9-57.578 34.166-109.876 91.778-116.844 4.26-0.492 8.52-0.778 12.666-0.778 52.446 0 97.774 39.204 104.248 92.562 6.9 57.66-34.21 109.94-91.858 116.836zM950.012 590.818l-221.96 282.566-282.556-221.96 221.984-282.56 282.532 221.954zM706.618 730.812l80.838-102.896-48.494-38.086-80.838 102.872 48.494 38.11z" />
<glyph unicode="&#xe60b;" glyph-name="attach" d="M254.572 60.368c-43.128-0.012-86.634 16.988-119.772 50.126-33.152 33.148-50.166 76.67-50.154 119.792-0.058 40.594 15.244 81.512 46.066 112.282l432.196 432.218c40.454 40.51 94.162 60.61 147.704 60.536 56.908 0.024 114.438-22.416 158.358-66.32 43.876-43.896 66.306-101.396 66.294-158.302 0.054-53.558-20.034-107.254-60.538-147.73l-383.458-383.46-53.12 53.12 383.474 383.464c25.684 25.74 38.458 59.416 38.518 94.606-0.008 37.29-14.646 75.518-44.302 105.184-29.668 29.676-67.916 44.304-105.226 44.33-35.176-0.068-68.846-12.836-94.568-38.532l-432.22-432.224c-16.026-16.060-23.988-36.96-24.058-59.168 0.026-23.524 9.226-47.754 28.156-66.692 18.91-18.892 43.124-28.086 66.652-28.112 22.204 0.068 43.102 8.028 59.174 24.050l326.016 325.998c6.036 6.080 9.042 13.812 9.098 22.662 0 9.332-3.634 19.14-11.446 26.952-7.826 7.83-17.636 11.452-26.958 11.478-8.85-0.076-16.566-3.086-22.656-9.13l-277.262-277.26-53.12 53.12 277.24 277.236c20.814 20.882 48.578 31.208 75.792 31.142 28.936 0.024 58.020-11.41 80.098-33.478 22.014-22.050 33.44-51.108 33.44-80.058 0.058-27.198-10.258-54.958-31.118-75.78l-326.022-326.010c-30.73-30.754-71.536-46.050-112.044-46.042l-0.234 0.002z" />
<glyph unicode="&#xe60c;" glyph-name="barcode" d="M78.87 118.82h87.87v658.020h-87.87v-658.020zM323.934 118.82h84.596v658.020h-84.596v-658.020zM435.514 118.82h100.002v658.020h-100.002v-658.020zM690.388 118.82h74.792v658.020h-74.792v-658.020zM613.606 118.82h31.914v658.020h-31.914v-658.020zM252.81 118.82h31.946v658.020h-31.946v-658.020zM811.256 118.82h132.282v658.020h-132.282v-658.020z" />
<glyph unicode="&#xe60d;" glyph-name="calendar" d="M684.782 255.144h-89.758v-89.73h89.758v89.73zM558.314 495.286h-89.702v-89.708h89.702v89.708zM684.782 375.218h-89.758v-89.718h89.758v89.718zM811.13 495.286h-89.708v-89.708h89.708v89.708zM558.314 375.218h-89.702v-89.718h89.702v89.718zM684.782 495.286h-89.758v-89.708h89.758v89.708zM811.13 375.218h-89.708v-89.718h89.708v89.718zM305.524 255.144h-89.712v-89.73h89.712v89.73zM305.524 375.218h-89.712v-89.718h89.712v89.718zM788.048 811.584v-39.384c15.474-13.692 25.284-33.65 25.284-55.938 0-41.266-33.462-74.734-74.736-74.734-41.288 0-74.734 33.468-74.734 74.734 0 22.296 9.804 42.25 25.286 55.938v39.384h-349.208v-39.384c15.478-13.692 25.284-33.65 25.284-55.938 0-41.266-33.462-74.734-74.736-74.734-41.28 0-74.734 33.468-74.734 74.734 0 22.296 9.806 42.25 25.284 55.938v39.384h-166.54v-795.288h873.334v795.288h-159.784zM868.068 96.066h-713.806v496.848h713.806v-496.848zM431.976 495.286h-89.762v-89.708h89.762v89.708zM431.976 255.144h-89.762v-89.73h89.762v89.73zM558.314 255.144h-89.702v-89.73h89.702v89.73zM431.976 375.218h-89.762v-89.718h89.762v89.718zM290.49 672.72c20.544 0 37.204 16.652 37.204 37.198v134.010c0 20.534-16.658 37.2-37.204 37.2-20.548 0-37.206-16.666-37.206-37.2v-134.010c0.002-20.544 16.658-37.198 37.206-37.198zM738.598 672.72c20.542 0 37.202 16.652 37.202 37.198v134.010c0 20.534-16.658 37.2-37.202 37.2-20.548 0-37.208-16.666-37.208-37.2v-134.010c-0.002-20.544 16.658-37.198 37.208-37.198z" />
<glyph unicode="&#xe60e;" glyph-name="call" d="M89.856 575.402c166.278-469.414 560.962-564.288 621.468-568.788 145.084-15.366 238.378 75.538 256.598 213.096 0 0-146.698 93.292-219.88 108.616l-115.69-115.694c0 0-62.26-2.714-198.584 133.604-136.312 136.324-133.596 198.586-133.596 198.586l99.59 99.594c-16.644 100.926-75.060 260.508-189.308 223.636-112.598-35.442-154.196-194.194-120.598-292.65z" />
<glyph unicode="&#xe60f;" glyph-name="cancel" d="M802.862 624.372l-117.514 117.518-176.058-176.050-176.056 176.050-117.518-117.518 176.050-176.052-176.050-176.050 117.518-117.536 176.056 176.062 176.058-176.062 117.514 117.536-176.054 176.050z" />
<glyph unicode="&#xe610;" glyph-name="clone_mobile" d="M510.94 794.28l-14.67 14.666h-398.82v-713.406h596.14v516.088l-182.65 182.652zM695.084 849.89h-183.208l50.086-50.078 111.038 0.188 148-155 1.204-370.636h-85.996l0.004-50.074h136.074v448.39l-177.202 177.21z" />
<glyph unicode="&#xe611;" glyph-name="clone" d="M486.94 830.28l-14.67 14.666h-398.82v-833.406h596.14v636.088l-182.65 182.652zM619.514 61.622h-495.992v733.246h283.23c74.406 0 38.552-176.36 38.552-176.36s172 41.802 174.208-37.060v-519.826h0.002zM933.616 723.354l-162.532 162.536h-253.208l50.086-50.078h142.962c0.124 0 0.238-0.018 0.37-0.018-0.012-0.572-0.046-1.094-0.046-1.674 22.35 0 33.38-18.090 38.236-41.9 8.716-45.918-4.624-111.654-4.624-111.654s0.274 0.064 0.682 0.164c-0.228-1.202-0.362-1.864-0.362-1.864s134.258 32.65 151.586-21.466c0.152-0.588 0.322-1.17 0.45-1.772 0.166-0.604 0.28-1.226 0.414-1.842 0.308-1.856 0.52-3.778 0.574-5.808v-457.616h-175.996l0.004-50.074h226.074v568.392l-14.67 14.674z" />
<glyph unicode="&#xe612;" glyph-name="complete" d="M923.768 823.72c-265.204-162.594-457.634-367.74-544.096-470.688l-211.746 165.896-93.504-75.38 365.88-372.1c62.972 161.292 262.398 476.528 505.914 700.506l-22.448 51.766z" />
<glyph unicode="&#xe613;" glyph-name="contact" d="M45.508 849.826v-808.4c0-30.070 24.356-54.426 54.446-54.426h67.206v917.232h-67.206c-30.090 0-54.446-24.356-54.446-54.406zM232.492-13h616.164v917.232h-616.164v-917.232zM776.356 227.136h-471.656c-0.412 20.218 1.030 56.622 1.030 72.058 7.832 22.67 33.744 25.932 55.404 35.076 23.794 10.002 50.136 21.658 73.874 31.378 6.784 1.858 13.546 3.712 20.31 5.548 8.112 5.562 16 24.054 20.328 33.236l9.594 2.342c-2.156 12.142-9.668 13.096-12.798 21.676-1.218 12.93-2.492 25.858-3.71 38.784 0.058-0.616-8.824 1.632-9.986 2.362-12.554 7.832-12.796 39.776-14.016 53.042-0.58 6.070 7.888 11.036 5.546 22.164-13.752 65.144 5.938 95.628 37.078 105.726 21.582 8.768 61.922 25.012 99.58 1.854l9.332-8.638 15.12-2.622c7.588-4.384 12.44-18.886 12.44-18.886 3.972-16.036 4.348-17.368 3.972-33.836-0.13-6.334-3.784-35.672-2.81-44.666 0.824-7.42 2.68-8.020 5.604-14.128 5.096-10.662 3.408-25.312 1.46-36.046-1.068-5.864-3.336-14.222-6.784-19.016-3.786-5.286-11.354-5.32-14.708-11.486-4.852-8.864-2.098-21.342-5.17-30.934-3.466-10.848-12.274-11.618-12.928-25.834 4.326-0.622 8.634-1.218 12.928-1.858 4.326-9.182 12.232-27.674 20.326-33.236 6.766-1.836 13.528-3.692 20.31-5.548 23.738-9.72 50.1-21.376 73.894-31.378 21.64-9.144 47.59-12.406 55.382-35.076 0.006-15.436 1.486-51.838 1.054-72.058zM891.396 904.232h83.264v-210.124h-83.264v210.124zM891.396 638.878h83.264v-210.142h-83.264v210.142zM891.396 373.486h83.264v-210.108h-83.264v210.108z" />
<glyph unicode="&#xe614;" glyph-name="customer" d="M943.814 167.166c-14.456 41.912-62.322 47.924-102.306 64.792-43.908 18.516-92.596 40.004-136.402 57.98-12.5 3.402-25.010 6.814-37.508 10.23-14.926 10.272-29.542 44.4-37.52 61.372-7.956 1.134-15.902 2.278-23.876 3.406 1.232 26.258 17.484 27.668 23.876 47.732 5.624 17.698 0.584 40.696 9.506 57.076 6.19 11.372 20.19 11.456 27.18 21.206 6.35 8.852 10.526 24.282 12.502 35.122 3.61 19.806 6.758 46.922-2.65 66.566-5.408 11.292-8.822 12.372-10.328 26.080-1.828 16.608 4.898 70.772 5.174 82.486 0.688 30.388-0.046 32.848-7.402 62.446 0 0-8.932 26.82-22.93 34.894l-27.902 4.806-17.24 15.98c-69.49 42.756-143.984 12.762-183.882-3.406-57.492-18.654-93.846-74.954-68.464-195.224 4.332-20.54-11.248-29.722-10.234-40.928 2.23-24.518 2.704-83.442 25.866-97.962 2.152-1.344 18.582-5.458 18.474-4.336 2.278-23.866 4.546-47.754 6.818-71.618 5.784-15.866 19.656-17.608 23.688-40.014l-17.752-4.314c-7.98-16.97-22.596-51.102-37.52-61.374-12.498-3.416-25.012-6.828-37.508-10.23-43.81-17.974-92.498-39.466-136.406-57.978-39.982-16.87-87.85-22.878-102.304-64.792 0-28.462-2.684-95.698-1.946-132.994h382.274l28.068 191.682-23.33 49.242 53.862 25.826 45.368-25.292-25.010-50.702 44.224-190.758h365.498c0.722 37.3-1.958 104.536-1.958 132.998z" />
<glyph unicode="&#xe615;" glyph-name="dashboard" d="M509.036 865.944c-235.778 0-426.874-191.128-426.874-426.89 0-235.728 191.094-426.89 426.874-426.89 235.782 0 426.876 191.162 426.876 426.89-0.004 235.762-191.098 426.89-426.876 426.89zM488.604 784.856h54.298v-106.53h-54.298v106.53zM326.262 585.612l-75.322 75.326 38.37 38.354 75.346-75.326-38.394-38.354zM353.030 745.792l49.19 22.928 45.006-96.546-49.16-22.93-45.036 96.548zM516.524 127.902c-47.192 0-85.418 38.26-85.418 85.434 0 36.842 23.378 68.144 56.032 80.158v243.62h54.278v-242.044c35.042-10.658 60.542-43.184 60.542-81.734 0-47.174-38.254-85.434-85.434-85.434zM580.092 672.304l45.024 96.512 49.206-22.928-45.048-96.512-49.182 22.928zM699.374 585.612l-38.354 38.354 75.294 75.326 38.386-38.354-75.326-75.326z" />
<glyph unicode="&#xe616;" glyph-name="decline" d="M822.898 492.496c-25.018 13.438-56.186 4.048-69.658-20.934l-72.402-133.516v426.628c0 22.592-18.246 40.906-40.904 40.906-22.598 0-40.914-18.314-40.914-40.906v-302.724c0-8.534-6.93-15.472-15.5-15.472-8.562 0-15.498 6.938-15.498 15.472v383.882c0 22.636-18.318 40.95-40.948 40.95-22.56 0-40.94-18.314-40.94-40.95v-391.304c0-8.568-6.936-15.474-15.466-15.474-8.538 0-15.54 6.906-15.54 15.474v314.95c0 22.624-18.274 40.936-40.874 40.936-22.632 0-40.944-18.312-40.944-40.936v-314.95c0-8.568-6.932-15.504-15.5-15.504s-15.5 6.938-15.5 15.504v208.052c0 22.626-18.31 40.94-40.946 40.94-22.562 0-40.906-18.314-40.906-40.94v-472.148c0-14.49 7.752-35.256 17.3-46.174l89.596-102.852c9.488-10.852 29.144-19.852 43.662-19.852h201.476c14.518 0 32.014 10.464 38.912 23.186l192.418 378.126c13.414 24.986 4.062 56.152-20.924 69.63z" />
<glyph unicode="&#xe617;" glyph-name="delete_attachment_cache" d="M155.758 218.886c-34.866-0.008-70.032 13.732-96.818 40.522-26.798 26.794-40.552 61.978-40.542 96.834-0.046 32.812 12.324 65.888 37.238 90.762l349.366 349.386c32.7 32.746 76.116 48.994 119.396 48.934 46.004 0.020 92.508-18.12 128.008-53.61 35.464-35.486 53.598-81.966 53.59-127.964 0.042-43.294-16.192-86.7-48.934-119.418l-309.97-309.968-42.938 42.94 309.982 309.974c20.766 20.808 31.090 48.030 31.14 76.474-0.008 30.144-11.844 61.044-35.816 85.026-23.98 23.99-54.898 35.814-85.058 35.838-28.434-0.056-55.652-10.378-76.446-31.15l-349.39-349.39c-12.954-12.982-19.39-29.878-19.448-47.828 0.020-19.018 7.458-38.602 22.76-53.912 15.288-15.272 34.858-22.702 53.88-22.724 17.946 0.056 34.84 6.49 47.832 19.444l263.536 263.522c4.878 4.918 7.31 11.166 7.354 18.322 0 7.542-2.938 15.468-9.252 21.786-6.326 6.33-14.256 9.256-21.792 9.278-7.154-0.064-13.392-2.494-18.314-7.38l-224.122-224.13-42.94 42.938 224.108 224.108c16.826 16.878 39.268 25.226 61.268 25.174 23.39 0.018 46.9-9.222 64.748-27.064 17.794-17.824 27.028-41.314 27.028-64.712 0.046-21.986-8.29-44.426-25.15-61.258l-263.542-263.532c-24.842-24.864-57.826-37.226-90.572-37.22h-0.19v-0.002zM674.536 450.754c0-25.584 0 0 0 0v-51.162h56.148v51.162h84.186v-51.162h56.17v51.162c0 0 0-25.582 0 0 0 51.164-28.11 51.164-56.17 51.164-28.064 0-28.064 0-84.186 0-56.148 0-56.148-25.582-56.148-51.164zM955.232 424.652c0 0.284-0.232 0.518-0.518 0.518h-363.852c-0.288 0-0.52-0.234-0.52-0.518v-50.128c0-0.284 0.232-0.516 0.52-0.516h27.026c0.288 0 0.52-0.234 0.52-0.52v-280.366c0-0.286 0.232-0.52 0.52-0.52h307.724c0.286 0 0.518 0.234 0.518 0.52v280.366c0 0.286 0.232 0.52 0.52 0.52h27.028c0.286 0 0.518 0.232 0.518 0.516v50.128h-0.004zM702.62 144.288c0-0.286-0.23-0.52-0.516-0.52h-27.048c-0.286 0-0.52 0.234-0.52 0.52v214.224c0 0.284 0.234 0.516 0.52 0.516h27.048c0.286 0 0.516-0.232 0.516-0.516v-214.224zM786.806 144.288c0-0.286-0.234-0.52-0.52-0.52h-27.018c-0.284 0-0.516 0.234-0.516 0.52v214.224c0 0.284 0.232 0.516 0.516 0.516h27.018c0.286 0 0.52-0.232 0.52-0.516v-214.224zM871.040 144.288c0-0.286-0.234-0.52-0.518-0.52h-27.072c-0.286 0-0.52 0.234-0.52 0.52v214.224c0 0.284 0.234 0.516 0.52 0.516h27.072c0.284 0 0.518-0.232 0.518-0.516v-214.224z" />
<glyph unicode="&#xe618;" glyph-name="description" d="M720.914 839.138v-44.826c5.816-9.43 9.236-20.504 9.236-32.396 0-34.176-27.704-61.868-61.87-61.868-34.168 0-61.856 27.692-61.856 61.868 0 11.892 3.41 22.958 9.226 32.384v44.838h-83.45v-44.826c5.82-9.43 9.238-20.504 9.238-32.396 0-34.176-27.704-61.868-61.87-61.868-34.168 0-61.858 27.692-61.858 61.868 0 11.892 3.414 22.958 9.226 32.384v44.838h-83.452v-44.826c5.818-9.43 9.24-20.504 9.24-32.396 0-34.176-27.704-61.868-61.866-61.868-34.172 0-61.864 27.692-61.864 61.868 0 11.892 3.416 22.958 9.228 32.384v44.838h-57.368v-612.318l197.318-197.324h398.824v809.642h-56.082zM726.918 79.574h-283.222c-74.406 0-38.552 176.362-38.552 176.362s-171.998-41.802-174.21 37.068v359.92h495.986v-573.35zM683.312 495.316h-397.286v-61.548h397.284v61.548zM683.312 598.888h-397.286v-61.554h397.284v61.554zM683.312 391.754h-397.286v-61.548h397.284v61.548zM668.29 725.862c17.004 0 30.792 13.794 30.792 30.8v86.042c0 17.006-13.79 30.792-30.792 30.792-17.012 0-30.798-13.786-30.798-30.792v-86.042c-0.002-17.006 13.786-30.8 30.798-30.8zM290.866 725.862c17.002 0 30.792 13.794 30.792 30.8v86.042c0 17.006-13.79 30.792-30.792 30.792-17.008 0-30.798-13.786-30.798-30.792v-86.042c0-17.006 13.79-30.8 30.798-30.8zM479.574 725.862c17.008 0 30.796 13.794 30.796 30.8v86.042c0 17.006-13.79 30.792-30.796 30.792-17.004 0-30.792-13.786-30.792-30.792v-86.042c0-17.006 13.788-30.8 30.792-30.8z" />
<glyph unicode="&#xe619;" glyph-name="dispatch" d="M706.27 910.81h-385.504c-36.856 0-66.718-29.892-66.718-66.746v-782.826c0-36.852 29.866-66.746 66.718-66.746h385.504c36.91 0 66.75 29.894 66.75 66.746v782.826c0 36.854-29.84 66.746-66.75 66.746zM469.938 853.966h87.204v-28.964h-87.204v28.964zM513.572 29.534c-23.496 0-42.598 19.034-42.598 42.54 0 23.476 19.102 42.54 42.598 42.54 23.478 0 42.52-19.062 42.52-42.54 0-23.51-19.038-42.54-42.52-42.54zM723.040 141.454h-418.988v622.398h418.988v-622.398z" />
<glyph unicode="&#xe61a;" glyph-name="download_attachments" d="M155.758 218.886c-34.866-0.008-70.032 13.732-96.818 40.522-26.798 26.794-40.552 61.978-40.542 96.834-0.046 32.812 12.324 65.888 37.238 90.762l349.366 349.386c32.7 32.746 76.116 48.994 119.396 48.934 46.004 0.020 92.508-18.12 128.008-53.61 35.464-35.486 53.598-81.966 53.59-127.964 0.042-43.294-16.192-86.7-48.934-119.418l-309.97-309.968-42.938 42.94 309.982 309.974c20.766 20.808 31.090 48.030 31.14 76.474-0.008 30.144-11.844 61.044-35.816 85.026-23.98 23.99-54.898 35.814-85.058 35.838-28.434-0.056-55.652-10.378-76.446-31.15l-349.39-349.39c-12.954-12.982-19.39-29.878-19.448-47.828 0.020-19.018 7.458-38.602 22.76-53.912 15.288-15.272 34.858-22.702 53.88-22.724 17.946 0.056 34.84 6.49 47.832 19.444l263.536 263.522c4.878 4.918 7.31 11.166 7.354 18.322 0 7.542-2.938 15.468-9.252 21.786-6.326 6.33-14.256 9.256-21.792 9.278-7.154-0.064-13.392-2.494-18.314-7.38l-224.122-224.13-42.94 42.938 224.108 224.108c16.826 16.878 39.268 25.226 61.268 25.174 23.39 0.018 46.9-9.222 64.748-27.064 17.794-17.824 27.028-41.314 27.028-64.712 0.046-21.986-8.29-44.426-25.15-61.258l-263.542-263.532c-24.842-24.864-57.826-37.226-90.572-37.22h-0.19v-0.002zM688.71 521.166v-179.984h-146.632l224.86-269.976 224.86 269.976h-146.632v179.984z" />
<glyph unicode="&#xe61b;" glyph-name="edit" d="M164.718 104l17.356 122.098 17.448 122.258 209.658-209.576-122.188-17.528-122.274-17.252zM758.132 558.758l-314.404-314.488-34.882 34.872 314.372 314.512-69.948 69.882-314.458-314.4-34.952 34.918 314.51 314.442-34.942 34.916-349.334-349.358 209.632-209.644 349.3 349.452-34.894 34.896zM902.864 627.834c18.472 18.356 17.852 49.18-1.402 68.432l-139.692 139.74c-19.188 19.208-50.054 19.738-68.368 1.38-1.52-1.496-2.208-3.428-3.47-5.062l-0.804 0.852-67.098-67.052 209.598-209.62 67.098 67.098-0.898 0.92c1.678 1.218 3.544 1.792 5.036 3.312z" />
<glyph unicode="&#xe61c;" glyph-name="export" d="M693.842 425.598v-61.14h118.494v-182.386h-606.854v182.386h118.602v61.14h-179.672v-304.598h729.068v304.598h-179.638zM269.73 491.274h154.854v-195.958l164.974 0.038v195.884l154.708 0.036-237.222 287.562-237.314-287.562z" />
<glyph unicode="&#xe61d;" glyph-name="filter" d="M108.004 856.162h810.75v-107.672l-332.37-396.888v-166.914l-164.87-146.516v313.43l-313.51 399.926z" />
<glyph unicode="&#xe61e;" glyph-name="history" d="M913.086 622.152c-49.168 94.644-132.246 164.466-233.934 196.602-39.188 12.386-79.326 18.574-119.278 18.72-346.528 14.286-446.29-301.832-446.29-301.832l-81.584-3.57 152.55-188.010 156.116 198.66h-92.25c88.518 237.088 323.486 229.146 373.67 224.594 12.676-2.458 25.288-5.638 37.784-9.588 85.382-26.982 155.138-85.61 196.428-165.088 41.298-79.44 49.184-170.2 22.208-255.556-26.978-85.358-85.598-155.112-165.054-196.408-79.442-41.296-170.214-49.182-255.594-22.208-85.376 26.976-155.132 85.58-196.418 165.022l-56.79-29.512c49.168-94.614 132.246-164.412 233.926-196.538 39.662-12.532 80.292-18.746 120.726-18.744 63.228 0 125.96 15.198 183.664 45.194 94.624 49.182 164.432 132.252 196.56 233.908 32.13 101.66 22.74 209.75-26.44 304.354zM480.902 400.972c0-34.378 27.886-62.222 62.266-62.222 27.804 0 51.322 18.212 59.306 43.364h157.596c9.388 0 17 7.61 17 17 0 9.386-7.612 17-17 17h-156.542c-6.758 27.062-31.202 47.11-60.36 47.108-0.768 0-1.528-0.030-2.29-0.058l-54.996 182.27c-2.71 8.988-12.192 14.074-21.186 11.364-8.988-2.712-14.076-12.196-11.364-21.186l55.192-182.914c-16.654-11.172-27.622-30.166-27.622-51.726z" />
<glyph unicode="&#xe61f;" glyph-name="home" d="M509.942 886.044l-459.608-459.544 86.452-86.464 373.172 373.078 373.034-373.054 86.448 86.43-459.498 459.554zM182.166 314.596v-302.334h234.22v274.726h187v-274.726h234.224v302.352l-327.668 327.688-327.776-327.706z" />
<glyph unicode="&#xe620;" glyph-name="import" d="M697.684 423.984v-61.344h118.902v-182.99h-608.84v182.99h118.968v61.344h-180.254v-305.616h731.474v305.616h-180.25zM748.37 581.742h-155.332v196.604h-165.538v-196.604h-155.26l238.064-288.49 238.066 288.49z" />
<glyph unicode="&#xe621;" glyph-name="information" d="M543.778 684.070c-4.476 3.436-9.66 5.89-15.632 7.262-5.92 1.374-12.268 2.066-18.992 2.066-6.732 0-13.124-0.692-19.152-2.066-6.042-1.372-11.284-3.826-15.776-7.262-4.448-3.45-7.954-8.040-10.546-13.666-2.562-5.654-3.866-12.75-3.866-21.264 0-8.316 1.304-15.358 3.866-21.068 2.594-5.766 6.1-10.392 10.546-13.846 4.492-3.436 9.734-5.958 15.776-7.428 6.028-1.47 12.42-2.218 19.152-2.218 6.724 0 13.072 0.748 18.992 2.218 5.972 1.47 11.156 3.994 15.632 7.428 4.438 3.454 8.042 8.080 10.67 13.846 2.664 5.71 4.026 12.752 4.026 21.068 0 8.512-1.362 15.61-4.026 21.264-2.63 5.626-6.232 10.216-10.67 13.666zM463.678 563.276h90.66v-332.15h-90.66v332.15zM508.962 902.524c-245.066 0-444.448-199.422-444.448-444.546 0-245.106 199.38-444.514 444.448-444.514 245.108 0 444.532 199.408 444.532 444.514-0.002 245.122-199.426 444.546-444.532 444.546zM508.962 77.648c-209.678 0-380.26 170.624-380.26 380.33 0 209.736 170.582 380.358 380.26 380.358 209.708 0 380.33-170.624 380.33-380.358 0-209.704-170.624-380.33-380.33-380.33z" />
<glyph unicode="&#xe622;" glyph-name="invoice" d="M766.396 651.952l-177.040-28.078c-8.882 22.526-16.894 38.152-24.030 46.878-7.144 8.724-18.96 17.53-35.458 26.414v-137.7c96.454-25.7 160.858-52.866 193.22-81.42 42.832-38.428 64.248-87.17 64.248-146.228 0-34.58-7.7-66.35-23.080-95.26-15.388-28.876-35.060-53.028-59.014-72.376-23.958-19.356-49.416-33.438-76.386-42.158-26.968-8.722-59.962-13.88-98.988-15.466v-89.95h-69.502v89.95c-46.64 4.124-84.476 11.66-113.506 22.606-29.032 10.948-54.096 26.094-75.194 45.452-21.1 19.356-37.364 40.212-48.784 62.582-11.422 22.37-19.988 49.418-25.698 81.144l192.27 22.368c5.708-31.41 13.404-54.094 23.080-68.054 9.676-13.958 25.624-26.334 47.832-37.122v168.146c-64.088 17.81-109.542 33.2-136.35 46.208-26.812 13.044-50.052 33.906-69.724 62.66-19.668 28.714-29.504 63.734-29.504 104.978 0 56.514 19.75 103.75 59.25 141.704 39.5 37.952 98.28 58.974 176.328 63.098v47.118h69.502v-47.116c71.068-4.44 125.404-21.258 163-50.448s62.108-69.168 73.528-119.93zM460.366 699.542c-20.308-6.702-34.426-14.992-42.356-24.866-7.932-9.876-11.898-21.536-11.898-34.904 0-14.038 4.024-26.252 12.076-36.604 8.032-10.352 22.11-19.038 42.178-26.016v122.39zM529.87 230.768c26.97 6.030 46.716 15.98 59.25 29.824 12.534 13.88 18.798 29.388 18.798 46.56 0 14.95-5.314 28.71-15.944 41.32-10.59 12.54-31.292 24.234-62.108 35.026l0.004-152.73z" />
<glyph unicode="&#xe623;" glyph-name="item" d="M322.16 747.418l-140.146-80.904 330.996-191.090 140.15 80.906-331 191.088zM841.862 665.266l-330.992 191.104-127.158-73.418 331-191.084 127.15 73.398zM541.642 420.886v-379.746l329.932 190.476v379.744l-329.932-190.474zM150.164 231.618l329.918-190.466v382.208l-329.918 190.462v-382.204z" />
<glyph unicode="&#xe624;" glyph-name="job_Lead" d="M508.404 3.944c-121.748 0-236.206 47.404-322.288 133.478-86.082 86.076-133.488 200.522-133.488 322.254 0 121.734 47.406 236.18 133.488 322.256 86.082 86.078 200.54 133.484 322.288 133.484 121.73 0 236.176-47.406 322.256-133.484 86.076-86.078 133.48-200.522 133.48-322.254s-47.404-236.176-133.48-322.254c-86.080-86.076-200.524-133.48-322.256-133.48zM508.404 901.774c-243.792 0-442.132-198.324-442.132-442.098 0-243.77 198.34-442.092 442.132-442.092 243.772 0 442.096 198.322 442.096 442.092 0 243.774-198.324 442.098-442.096 442.098zM508.85 861.832c-220.882 0-399.914-179.034-399.914-399.882s179.032-399.876 399.914-399.876c220.846 0 399.88 179.030 399.88 399.876s-179.034 399.882-399.88 399.882zM738.756 265.446h-462.604c0 0-3.694 93.396 8.72 112.834 13.926 21.72 60.628 35.172 106.886 54.496 46.256 19.322 57.23 25.972 57.23 25.972l0.48 44.41c0 0-17.328 13.298-22.686 55.122-10.822-3.18-22.242 16.11-22.832 26.306-0.63 9.756 1.442 36.948 14.63 34.288-2.622 20.428-4.582 38.794-3.622 48.546 3.398 35.726 38.574 73.336 92.476 73.336 54.016 0 89.078-37.61 92.628-73.336 0.922-9.752-1.002-28.118-3.732-48.546 13.228 2.66 15.328-24.53 14.628-34.288-0.48-10.196-11.898-29.486-22.758-26.306-5.32-41.822-22.762-55.122-22.762-55.122l0.446-44.41c0 0 10.972-6.652 57.304-25.972 46.182-19.324 92.884-32.776 106.812-54.496 12.526-19.438 8.756-112.834 8.756-112.834z" />
<glyph unicode="&#xe625;" glyph-name="job" d="M611.384 422.762v-117.214h-199.808v117.214h-336.76v-346.116h873.328v346.116h-336.76zM411.574 553.958h199.808v-79.88h336.712v157.766c0 23.486-19.050 42.538-42.546 42.538h-156.876v54.738c-0.022 49.888-40.414 90.284-90.302 90.308h-294.35c-49.876-0.024-90.278-40.42-90.304-90.308v-54.738h-156.908c-23.492 0-42.544-19.052-42.544-42.538v-157.766h337.312v79.88zM335.276 729.12c0.026 15.86 12.88 28.72 28.744 28.748h294.352c15.874-0.028 28.716-12.888 28.754-28.748v-54.738h-351.85v54.738zM561.032 504.010h-99.658v-148.26h99.658v148.26z" />
<glyph unicode="&#xe626;" glyph-name="jobs_mapview" d="M203.036 174.41c-25.76 38.534 31.872 72.616 59.94 99.488 15.396 14.714 108.652 102.766 68.108 120.676-24.726 10.922-111.246 87.576-140.31 68.304-8.042-5.414-32.172-10.494-44.952-10.85v-73c11.332-18.612 45.824-30.224 45.602-54.102-0.378-38.122-48.496-142.96 11.612-150.516zM217.772 608.626c9.224 7.888-18.348 30.12-0.638 34.758 4.294 1.102 63.166-33.458 63.554-28.778 1.182 13.99-64.882 53.058-79.086 61.13-46.5 26.298-35.494-15.72-57.94-35.212v-72.506c2.202 3.34 17.892 6.902 21.492 10.862 15.018 16.466 36.89 16.32 52.618 29.746zM694.904 300.376c18.63 10.682 13.604 56.208 8.256 62.714-9.816-9.114-25.59-72.568-8.256-62.714zM514.45 442.056c39.14-15.612 36.512-219.864 100.008-165.686 33.454 28.5 42.618 64.558 44.96 103.676 1.216 20.316 62.39 71.168 56.382 84.068-5.018 10.672-37.196-15.646-38.742 7.93-0.922 14.148-43.29 44.436-35.486 55.38 11.786 16.704 28.63-30.654 28.436-30.14 10.79-25.524 20.066-21.008 43.358-15.156 54.002 13.638 7.814 30.686-6.144 48.838-18.528 24.13 58.996-4.694 64.010-4.756 31.054-0.26 36.45-73.96 53.070-70.296 10.622 2.348 37.412 29.232 51.176 45.464v193.61c-11.48-0.252-38.124-0.608-49.588-0.566-13.494 0.106-81.74-6.452-78.554 19.272 0.32 2.42-92.424-25.512-102.334-23-11.87 3.122 21.298 18.896 21.144 17.46 0.702 6.084-2.422 9.896-7.76 12.262h-42.084c-38.594-7.266-86.856-27-95.61-39.42 9.2 13.028 29.094-32.688 29.39-32.806 3.86-1.672 34.714 52.054 46.93 32.166 15.992-25.922-53.786-39.612-67.522-34.236-9.752 3.822-26.050-18.738-29.884-15.030-11.288 11.092-7.528 47.916-12.952 51.142-15.892 9.414-26.824-40.492-28.918-43.558-2.682-3.91 49.228-20.834 29.116-30.824-5.174-2.586-51.53 1.74-44.238-21.898 11.542-37.4 93.172 40.656 104.804 13.372 8.588-20.064 93.604 6.024 109.688 10.026-16.598-67.962-86.864-53.018-134.8-39.444-45.254 12.788-93.838-32.918-96.008-76.53-3.75-77.208 50.48-36.11 88.152-51.32zM772.922 180.532c-20.298-7.69-23.168-39.318-19.22-51.392h119.574v118.744c-27.748-18.664-55.272-50.17-100.354-67.352zM175 499.934c-1.844 15.050-24.646 24.466-31.338 34.020v-15.124c10.076-9.764 31.284-18.436 31.338-18.896zM967.724 832h-916.664v-797.52h916.664v797.52zM908.394 96.116h-799.806v672.352h799.804v-672.352z" />
<glyph unicode="&#xe627;" glyph-name="jobs_standardview" d="M334.298 691.284c0-6.676-5.484-12.108-12.19-12.108h-89.038c-6.624 0-12.134 5.432-12.134 12.108v85c0 6.624 5.51 12.124 12.134 12.124h89.038c6.708 0 12.19-5.498 12.19-12.124v-85zM334.298 529.43c0-6.662-5.484-12.118-12.19-12.118h-89.038c-6.624 0-12.134 5.456-12.134 12.118v84.988c0 6.694 5.51 12.124 12.134 12.124h89.038c6.708 0 12.19-5.43 12.19-12.124v-84.988zM334.298 365.564c0-6.666-5.484-12.15-12.19-12.15h-89.038c-6.624 0-12.134 5.484-12.134 12.15v84.986c0 6.632 5.51 12.152 12.134 12.152h89.038c6.708 0 12.19-5.52 12.19-12.152v-84.986zM334.298 203.722c0-6.662-5.484-12.132-12.19-12.132h-89.038c-6.624 0-12.134 5.47-12.134 12.132v84.938c0 6.708 5.51 12.162 12.134 12.162h89.038c6.708 0 12.19-5.454 12.19-12.162v-84.938zM370.65 751.974h453.268v-34.368h-453.268v34.368zM370.65 590.122h453.268v-34.378h-453.268v34.378zM370.65 426.23h453.268v-34.354h-453.268v34.354zM370.65 260.386h453.268v-34.432h-453.268v34.432z" />
<glyph unicode="&#xe628;" glyph-name="key" d="M591.176 484.048c19.2 37.142 30.298 79.246 30.298 123.964 0 149.038-120.878 269.918-269.93 269.918-149.026 0-269.906-120.88-269.906-269.918 0-149.072 120.88-269.94 269.906-269.94 44.728 0 86.8 11.052 123.906 30.298l146.022-145.956h77.142v-77.142h77.074v-77.142l38.604-38.56h115.678v115.702l-338.794 338.776zM274.406 608.012c-42.566 0-77.086 34.518-77.086 77.13 0 42.578 34.518 77.098 77.086 77.098 42.622 0 77.142-34.518 77.142-77.098-0.002-42.612-34.52-77.13-77.142-77.13z" />
<glyph unicode="&#xe629;" glyph-name="laptop" d="M926.842 264.348h-820.936l-60.914-118.766h942.76l-60.91 118.766zM413.6 174.086l25.308 48.122h157.424l22.818-48.122h-205.55zM912.758 291.798c0 0.752-0.15 1.466-0.224 2.198 0.074 0.74 0.224 1.448 0.224 2.188v491.29c0 12.458-10.102 22.554-22.564 22.554h-747.65c-12.456 0-22.558-10.096-22.558-22.554v-491.292c0-0.74 0.154-1.448 0.222-2.188-0.070-0.73-0.222-1.446-0.222-2.198l-0.19-0.362 792.962 0.364zM856.442 329.936h-680.138v423.786h680.138v-423.786zM1001.648 118.482h-970.55l-2.356-4.58c0-12.464 10.106-33.828 22.558-33.828h930.134c12.462 0 22.566 21.364 22.566 33.828l-2.352 4.58z" />
<glyph unicode="&#xe62a;" glyph-name="link_break" d="M548.624 303.424l-145.984-150.246c-28.962-29.808-67.828-46.904-106.632-46.904-30.336 0-58.086 10.73-78.14 30.214-22.25 21.618-33.756 52.278-32.4 86.328 1.442 36.18 16.984 71.286 43.766 98.848l154.044 158.544-71.192 76.116-157.516-162.114c-94.076-96.822-98.224-245.928-9.246-332.382 39.592-38.47 93.106-59.654 150.684-59.654 66.766 0 132.846 28.596 181.296 78.46l142.514 146.676-71.194 76.114zM887.78 825.964c-39.592 38.468-93.106 59.654-150.682 59.654-66.768 0-132.846-28.598-181.296-78.462l-152.842-157.306 71.192-76.116 156.312 160.878c28.962 29.808 67.828 46.904 106.634 46.904 30.334 0 58.084-10.73 78.138-30.216 22.25-21.618 33.758-52.276 32.4-86.328-1.44-36.18-16.984-71.286-43.764-98.85l-164.374-169.172 71.192-76.116 167.842 172.744c44.69 45.996 70.658 105.392 73.122 167.25 2.548 63.992-20.136 122.638-63.874 165.136z" />
<glyph unicode="&#xe62b;" glyph-name="link" d="M573.12 656.964c-50.216 9.292-88.774 16.426-130.062 24.066 55.59 53.172 109.108 111.432 169.888 160.74 78.818 63.938 193.962 53.528 261.82-16.122 69.364-71.196 76.668-187.536 8.426-264.51-64.776-73.066-134.492-142.46-207.484-207.34-72.074-64.064-185.368-60.404-254.808-0.262-28.562 24.736-34.058 54.506-14.486 78.464 18.968 23.222 47.44 24.82 77.304 4.342 50.77-34.814 97.278-32.768 141.48 9.776 56.11 54.004 110.848 109.46 165.196 165.248 11.322 11.622 20.504 26.502 26.94 41.482 15.78 36.724 7.336 75.82-19.436 101.468-26.048 24.952-67.784 32.688-102.334 15.49-17.526-8.724-33.672-21.658-47.842-35.374-27.93-27.036-54.046-55.942-74.602-77.468zM561.274 247.002c-44.43-47.736-90.902-105.382-145.26-154.256-80.494-72.374-200.034-66.524-272.228 6.54-71.278 72.136-76.904 189.64-5.384 269.8 63.544 71.222 131.818 138.884 203.202 202.264 72.988 64.806 188.128 60.928 257.444-0.862 26.672-23.776 31.686-52.758 13.184-76.186-18.76-23.754-47.57-25.824-77.142-5.544-52.132 35.75-98.494 33.308-144.098-10.778-55.194-53.36-109.782-107.44-162.38-163.33-15.274-16.23-27.234-38.558-32.958-60.146-10.232-38.588 7.396-74.872 39.568-94.984 31.944-19.968 79.196-17.156 112.152 11.032 31.208 26.694 59.724 56.614 88.568 85.958 11.92 12.128 20.388 16.080 39.35 9.018 30.472-11.348 64.116-14.174 85.982-18.526z" />
<glyph unicode="&#xe62c;" glyph-name="list" d="M358.77 627.062c0-5.984-4.904-10.836-10.906-10.836h-79.792c-5.934 0-10.872 4.852-10.872 10.836v76.166c0 5.934 4.938 10.872 10.872 10.872h79.792c6.002 0 10.906-4.938 10.906-10.872v-76.166zM358.77 482.068c0-5.99-4.904-10.872-10.906-10.872h-79.792c-5.934 0-10.872 4.882-10.872 10.872v76.148c0 6.002 4.938 10.854 10.872 10.854h79.792c6.002 0 10.906-4.852 10.906-10.854v-76.148zM358.77 335.24c0-5.954-4.904-10.89-10.906-10.89h-79.792c-5.934 0-10.872 4.938-10.872 10.89v76.146c0 5.936 4.938 10.872 10.872 10.872h79.792c6.002 0 10.906-4.936 10.906-10.872v-76.146zM358.77 190.208c0-5.97-4.904-10.874-10.906-10.874h-79.792c-5.934 0-10.872 4.902-10.872 10.874v76.128c0 5.986 4.938 10.872 10.872 10.872h79.792c6.002 0 10.906-4.884 10.906-10.872v-76.128zM391.348 686.454h366.126v-46.802h-366.126v46.802zM391.348 542.438h366.126v-46.8h-366.126v46.8zM391.348 394.594h366.126v-45.784h-366.126v45.784zM391.348 246.99h366.126v-46.852h-366.126v46.852zM818.804 21.946h-624.672c-24.050 0-43.518 19.466-43.518 43.482v757.11c0 23.98 19.468 43.518 43.518 43.518h624.67c23.906 0 43.448-19.538 43.448-43.518v-757.11c0-24.016-19.54-43.482-43.446-43.482zM218.132 813.030c-8.028 0-14.564-6.5-14.564-14.492v-709.11c0-7.994 6.538-14.458 14.564-14.458h576.67c7.958 0 14.422 6.462 14.422 14.458v709.11c0 7.992-6.462 14.492-14.422 14.492h-576.67z" />
<glyph unicode="&#xe62d;" glyph-name="lock" d="M749.3 514.488v154.644c0 117.406-82.264 236.26-239.62 236.26s-239.664-118.854-239.664-236.26v-154.644h-118.53v-479.692h716.386v479.692h-118.572zM370.914 669.132c0 65.234 43.424 135.376 138.766 135.376s138.766-70.142 138.766-135.376v-154.644h-277.532v154.644z" />
<glyph unicode="&#xe62e;" glyph-name="mail" d="M940.324 722.71h-855.734l425.612-364.040 430.122 364.040zM510.036 292.918l-436.568 373.414v-491.852h873.33v488.112l-436.762-369.674z" />
<glyph unicode="&#xe62f;" glyph-name="mapping" d="M510.442 838.386c-128.068 0-231.882-103.816-231.882-231.89 0-128.060 231.882-547.504 231.882-547.504s231.884 419.446 231.884 547.504c0 128.076-103.826 231.89-231.884 231.89zM510.442 536.042c-38.91 0-70.458 31.546-70.458 70.454 0 38.914 31.546 70.46 70.458 70.46s70.458-31.546 70.458-70.46c-0.002-38.908-31.546-70.454-70.458-70.454z" />
<glyph unicode="&#xe630;" glyph-name="multicrew_singular" d="M912.6 262.612c-24.52 38.26-106.9 61.984-188.362 95.982-81.492 33.968-100.798 45.738-100.798 45.738l-0.794 78.174c0 0 30.532 23.512 40.004 97.098 19.132-5.582 39.144 28.424 40.25 46.388 1.076 17.196-2.632 65.146-25.93 60.362 4.774 36.020 8.18 68.458 6.556 85.626-6.108 62.848-67.942 129.132-163.038 129.132-95.086 0-156.924-66.284-163.008-129.132-1.658-17.168 1.744-49.606 6.53-85.626-23.298 4.784-27.006-43.168-25.926-60.362 1.082-17.964 21.114-51.97 40.238-46.388 9.462-73.584 39.996-97.098 39.996-97.098l-0.782-78.174c0 0-19.3-11.77-100.838-45.738-81.488-33.998-163.818-57.722-188.31-95.982-21.986-34.28-15.378-198.788-15.378-198.788h814.914c0.006 0 6.63 164.508-15.324 198.788z" />
<glyph unicode="&#xe631;" glyph-name="new_asset" d="M578.348 270.924v0c1.682 0 3.354-0.124 5-0.158l-309.596 394.138c-20.776 26.416-52.012 40.288-82.99 40.23-22.616 0.058-45.864-7.346-65.064-22.488l-96.896-76.158 61.234-77.888 96.864 76.12c1.202 0.918 2.284 1.268 3.866 1.332 2.154-0.066 3.864-0.848 5.036-2.342l288.976-367.82c25.18 21.852 58.032 35.002 93.57 35.034zM832.392 437.030l-217.554-170.828c35.164-9.248 64.53-31.328 83.466-60.472l195.282 153.378-61.194 77.922zM589.75 221.88c-3.832 0.512-7.63 0.722-11.402 0.722-47.196 0-87.992-35.308-93.756-83.328-6.21-51.824 30.75-98.894 82.606-105.168 3.834-0.444 7.668-0.7 11.4-0.7 47.206 0 88.002 35.286 93.83 83.312 6.212 51.9-30.79 98.954-82.678 105.162zM859.758 537.818l-199.78 254.33-254.322-199.78 199.802-254.324 254.3 199.774zM640.686 663.822l72.76-92.614-43.648-34.28-72.76 92.592 43.648 34.302zM994.378 167.332h-75.73v75.726h-50.548v-75.726h-75.724v-50.55h75.724v-75.728h50.548v75.728h75.73z" />
<glyph unicode="&#xe632;" glyph-name="new_attach" d="M254.572 60.368c-43.128-0.012-86.634 16.988-119.776 50.126-33.148 33.148-50.166 76.67-50.15 119.792-0.058 40.594 15.24 81.512 46.062 112.286l432.2 432.214c40.454 40.51 94.158 60.61 147.704 60.536 56.908 0.024 114.438-22.416 158.358-66.32 43.876-43.896 66.306-101.396 66.294-158.302 0.050-53.558-20.038-107.254-60.542-147.73l-383.454-383.46-53.12 53.124 383.47 383.46c25.684 25.74 38.458 59.416 38.518 94.606-0.008 37.29-14.646 75.518-44.298 105.184-29.668 29.676-67.916 44.304-105.226 44.33-35.176-0.068-68.846-12.836-94.568-38.532l-432.216-432.224c-16.030-16.056-23.988-36.958-24.058-59.168 0.026-23.524 9.226-47.754 28.156-66.692 18.91-18.892 43.124-28.086 66.652-28.112 22.204 0.068 43.102 8.028 59.174 24.046l326.016 325.998c6.036 6.080 9.042 13.812 9.098 22.662 0 9.332-3.634 19.14-11.446 26.952-7.826 7.83-17.636 11.452-26.958 11.478-8.85-0.076-16.564-3.086-22.656-9.13l-277.266-277.256-53.12 53.12 277.24 277.236c20.81 20.882 48.578 31.208 75.792 31.142 28.936 0.024 58.020-11.41 80.098-33.478 22.014-22.050 33.44-51.108 33.44-80.058 0.058-27.198-10.258-54.958-31.118-75.78l-326.022-326.010c-30.73-30.754-71.536-46.050-112.044-46.042l-0.234 0.002zM952.73 177.55h-75.73v75.728h-50.548v-75.728h-75.724v-50.55h75.724v-75.726h50.548v75.726h75.73z" />
<glyph unicode="&#xe633;" glyph-name="new_contact" d="M992.941 193.882h-71.273v71.272h-47.575v-71.272h-71.273v-47.576h71.273v-71.273h47.575v71.273h71.273zM26.36 776.060v-641.572c0-23.866 19.33-43.194 43.209-43.194h53.336v727.945h-53.336c-23.88 0-43.209-19.328-43.209-43.179zM174.758 91.294h489.007v727.945h-489.007v-727.945zM606.387 281.875h-374.323c-0.328 16.045 0.817 44.936 0.817 57.188 6.216 17.993 26.78 20.582 43.97 27.838 18.884 7.938 39.789 17.188 58.628 24.902 5.384 1.474 10.75 2.946 16.119 4.405 6.438 4.414 12.698 19.091 16.132 26.377l7.614 1.858c-1.711 9.638-7.674 10.392-10.157 17.203-0.968 10.263-1.978 20.521-2.944 30.782 0.045-0.489-7.002 1.295-7.925 1.875-9.963 6.216-10.155 31.567-11.123 42.095-0.461 4.817 6.261 8.757 4.401 17.589-10.914 51.701 4.713 75.895 29.427 83.908 17.129 6.959 49.143 19.849 79.031 1.472l7.407-6.856 12-2.080c6.022-3.48 9.873-14.989 9.873-14.989 3.153-12.727 3.45-13.784 3.153-26.854-0.104-5.026-3.002-28.311-2.231-35.448 0.653-5.89 2.125-6.364 4.446-11.213 4.043-8.461 2.707-20.088 1.16-28.608-0.849-4.653-2.648-11.287-5.384-15.093-3.004-4.196-9.011-4.222-11.672-9.114-3.849-7.034-1.664-16.937-4.104-24.55-2.75-8.61-9.741-9.22-10.261-20.504 3.433-0.493 6.854-0.968 10.261-1.474 3.433-7.287 9.709-21.963 16.132-26.377 5.37-1.457 10.735-2.931 16.119-4.405 18.84-7.716 39.761-16.966 58.645-24.902 17.175-7.256 37.768-9.845 43.955-27.838 0.002-12.25 1.176-41.139 0.836-57.186zM697.685 819.24h66.080v-166.76h-66.080v166.76zM697.685 608.646h66.080v-166.775h-66.080v166.775zM697.685 398.022h66.080v-166.748h-66.080v166.748z" />
<glyph unicode="&#xe634;" glyph-name="new_customer" d="M943.812 167.166c-14.456 41.912-62.322 47.924-102.302 64.792-43.908 18.516-92.6 40.004-136.402 57.98-12.5 3.402-25.010 6.814-37.508 10.23-14.926 10.272-29.542 44.4-37.524 61.372-7.956 1.134-15.898 2.282-23.876 3.406 1.232 26.258 17.484 27.668 23.876 47.732 5.624 17.698 0.584 40.696 9.51 57.076 6.19 11.372 20.19 11.456 27.18 21.206 6.35 8.852 10.526 24.282 12.502 35.122 3.61 19.806 6.758 46.922-2.65 66.566-5.408 11.292-8.822 12.372-10.328 26.080-1.828 16.608 4.898 70.772 5.174 82.486 0.688 30.388-0.046 32.848-7.402 62.446 0 0-8.932 26.82-22.93 34.894l-27.902 4.806-17.236 15.98c-69.49 42.756-143.984 12.762-183.882-3.406-57.492-18.654-93.846-74.954-68.462-195.224 4.332-20.54-11.246-29.722-10.232-40.928 2.226-24.518 2.704-83.442 25.866-97.962 2.152-1.344 18.582-5.458 18.474-4.336 2.278-23.866 4.542-47.754 6.818-71.618 5.784-15.87 19.652-17.612 23.688-40.018l-17.752-4.31c-7.98-16.97-22.596-51.106-37.52-61.376-12.498-3.416-25.016-6.828-37.512-10.23-43.806-17.97-92.496-39.462-136.402-57.974-39.982-16.874-87.854-22.878-102.304-64.792 0-28.462-2.684-95.698-1.946-132.994h382.274l28.068 191.682-23.33 49.242 53.862 25.826 45.37-25.292-25.012-50.706 44.224-190.758h365.498c0.708 37.302-1.97 104.538-1.97 133zM963.278 475h-75.728v75.726h-50.55v-75.726h-75.724v-50.55h75.724v-75.728h50.55v75.728h75.728z" />
<glyph unicode="&#xe635;" glyph-name="new_invoice" d="M756.396 651.952l-177.040-28.078c-8.882 22.526-16.894 38.152-24.030 46.878-7.144 8.724-18.96 17.53-35.458 26.414v-137.7c96.454-25.7 160.858-52.866 193.22-81.42 42.832-38.428 64.248-87.17 64.248-146.228 0-34.58-7.706-66.35-23.080-95.26-15.388-28.876-35.060-53.028-59.020-72.376-23.958-19.356-49.416-33.438-76.38-42.158-26.968-8.716-59.962-13.876-98.988-15.46v-89.956h-69.502v89.952c-46.64 4.124-84.476 11.66-113.506 22.606-29.032 10.948-54.096 26.094-75.194 45.456-21.1 19.358-37.37 40.208-48.79 62.582-11.422 22.372-19.988 49.418-25.698 81.14l192.27 22.372c5.708-31.41 13.404-54.094 23.080-68.052s25.624-26.334 47.832-37.124v168.14c-64.088 17.81-109.542 33.2-136.35 46.208-26.812 13.044-50.052 33.906-69.724 62.66-19.668 28.714-29.504 63.734-29.504 104.978 0 56.514 19.75 103.75 59.25 141.704 39.5 37.952 98.286 58.974 176.328 63.098v47.118h69.502v-47.116c71.068-4.44 125.404-21.258 163-50.448 37.602-29.19 62.114-69.168 73.534-119.93zM450.366 699.542c-20.308-6.702-34.426-14.992-42.356-24.866-7.932-9.876-11.898-21.536-11.898-34.904 0-14.038 4.024-26.252 12.076-36.604 8.032-10.352 22.11-19.038 42.178-26.016v122.39zM519.87 230.768c26.97 6.030 46.716 15.98 59.25 29.824 12.54 13.88 18.798 29.388 18.798 46.56 0 14.95-5.314 28.71-15.95 41.32-10.59 12.54-31.292 24.234-62.108 35.026l0.010-152.73zM1010.278 143h-75.728v75.726h-50.55v-75.726h-75.724v-50.55h75.724v-75.728h50.55v75.728h75.728z" />
<glyph unicode="&#xe636;" glyph-name="new_item" d="M179.209 727.239l-130.701-75.451 308.688-178.211 130.703 75.453-308.69 178.21zM663.886 650.623l-308.685 178.224-118.588-68.47 308.692-178.206 118.581 68.451zM383.899 422.713v-354.153l307.696 177.639v354.151l-307.696-177.637zM18.805 246.201l307.683-177.624v356.443l-307.683 177.626v-356.445zM989.277 434.52h-70.626v70.622h-47.145v-70.622h-70.617v-47.143h70.617v-70.622h47.145v70.622h70.626z" />
<glyph unicode="&#xe637;" glyph-name="new_job" d="M446.486 437.214v-94.616h-161.283v94.616h-271.831v-279.38h704.945v279.38h-271.831zM285.201 543.114h161.285v-64.479h271.793v127.348c0 18.958-15.378 34.336-34.343 34.336h-126.63v44.184c-0.018 40.269-32.618 72.876-72.892 72.896h-237.599c-40.26-0.018-72.871-32.627-72.892-72.896v-44.184h-126.655c-18.961 0-34.341-15.378-34.341-34.336v-127.348h272.273v64.479h0.002zM223.614 684.504c0.020 12.801 10.398 23.182 23.202 23.206h237.599c12.812-0.024 23.18-10.403 23.215-23.206v-44.184h-284.016v44.184zM405.843 502.796h-80.445v-119.674h80.445v119.674zM982.315 274.489h-68.624v68.622h-45.806v-68.622h-68.626v-45.81h68.626v-68.622h45.806v68.622h68.624z" />
<glyph unicode="&#xe638;" glyph-name="new_mapping" d="M470.442 838.386c-128.068 0-231.882-103.816-231.882-231.89 0-128.060 231.882-547.504 231.882-547.504s231.884 419.446 231.884 547.504c0 128.076-103.826 231.89-231.884 231.89zM470.442 536.042c-38.91 0-70.458 31.546-70.458 70.454 0 38.914 31.546 70.46 70.458 70.46s70.458-31.546 70.458-70.46c-0.002-38.908-31.546-70.454-70.458-70.454zM857.946 186.882h-75.728v75.728h-50.55v-75.728h-75.724v-50.55h75.724v-75.726h50.55v75.726h75.728z" />
<glyph unicode="&#xe639;" glyph-name="new_quote" d="M223.694 225.792l166.818 75.535 236.281 236.277-41.534 41.594-142.383-142.383-24.924 24.999 142.327 142.331-25.488 25.509-236.327-236.322-74.769-167.54zM341.514 384.252l36.623 36.62 5.276-34.951 34.619-4.914-36.623-36.669-72.635-33.020 32.74 72.934zM746.713 657.491l-92.064 92.047-78.263-78.31 92.025-92.023 78.302 78.286zM562.11 378.432h130.282v-183.164h-583.969v183.164h139.552v48.207h-187.749v-279.563h680.362v279.566h-178.478v-48.21zM972.858 255.576h-59.56v59.557h-39.755v-59.557h-59.556v-39.757h59.556v-59.559h39.755v59.559h59.56z" />
<glyph unicode="&#xe63a;" glyph-name="new_task" d="M870.816 661.36c-17.728 17.724-25.724 41.446-24.166 64.626l-29.748 29.744c0 0-181.398 208.272-393.362 87.386l10.038-12.564 79.040 12.274-65.128-29.694 12.2-15.28c87.964 13.236 246.514-50.088 194.242-115.604l-154.502-154.496-0.332 0.336c-10.66-10.152-23.332-16.918-36.71-20.336l-416.496-380.442 130.39-130.376 379.606 415.578c3.456 14.532 10.746 28.326 22.080 39.654 1.406 1.412 2.898 2.678 4.388 3.968l165.668 165.656c21.288-0.052 44.042-6.702 60.292-22.946 16.968-16.96 25.008-39.414 24.3-61.642l49.018-49.014 101.41 101.4-47.596 47.6c-23.18-1.558-46.902 6.442-64.632 24.172zM941.278 127h-75.728v75.726h-50.55v-75.726h-75.724v-50.55h75.724v-75.728h50.55v75.728h75.728z" />
<glyph unicode="&#xe63b;" glyph-name="new_user" d="M893.314 169.032c-14.458 41.904-62.328 47.926-102.3 64.792-43.908 18.512-92.604 40.016-136.404 57.974-12.502 3.406-25.012 6.82-37.51 10.23-14.928 10.27-29.542 44.402-37.526 61.376-7.956 1.134-15.898 2.274-23.876 3.4 1.236 26.26 17.49 27.668 23.876 47.738 5.624 17.69 0.59 40.698 9.512 57.076 6.192 11.376 20.19 11.454 27.18 21.208 6.35 8.848 10.528 24.282 12.5 35.118 3.61 19.818 6.758 46.922-2.646 66.574-5.412 11.284-8.826 12.366-10.33 26.074-1.832 16.606 4.898 70.778 5.176 82.486 0.684 30.388-0.044 32.846-7.408 62.444 0 0-8.924 26.82-22.924 34.894l-27.904 4.804-17.24 15.982c-69.486 42.758-143.984 12.772-183.88-3.408-57.494-18.652-93.846-74.94-68.466-195.214 4.332-20.544-11.248-29.73-10.224-40.938 2.224-24.51 2.7-83.442 25.858-97.952 2.156-1.352 18.586-5.468 18.478-4.344 2.28-23.864 4.542-47.754 6.816-71.62 5.782-15.86 19.652-17.606 23.69-40.012l-17.762-4.312c-7.982-16.972-22.596-51.106-37.52-61.376-12.508-3.414-25.018-6.824-37.518-10.23-43.798-17.964-92.496-39.468-136.396-57.98-39.984-16.86-87.856-22.88-102.304-64.786 0-28.468-2.682-95.704-1.948-132.984h870.95c0.736 37.288-1.95 104.516-1.95 132.986zM710.442 73.784h-155.074v68.212h155.074v-68.212zM900.73 446h-75.73v75.726h-50.548v-75.726h-75.724v-50.55h75.724v-75.728h50.548v75.728h75.73z" />
<glyph unicode="&#xe63c;" glyph-name="noshow" d="M510.338 884.568c-240.794 0-435.996-195.204-435.996-435.998 0-240.786 195.202-435.992 435.996-435.992 240.796 0 435.998 195.204 435.998 435.992 0 240.794-195.2 435.998-435.998 435.998zM510.338 752.222c67.906 0 130.678-22.41 181.31-60.218l-161.754-161.752 0.006 103.124c0 20.742-16.818 37.552-37.56 37.552-20.75 0-37.558-16.81-37.558-37.552v-178.238l-187.876-187.876c-37.81 50.632-60.22 113.402-60.22 181.308 0 167.436 136.22 303.652 303.652 303.652zM510.338 144.918c-68.326 0-131.446 22.692-182.24 60.924l155.636 155.638 87.516-90.34c7.364-7.61 17.166-11.426 26.97-11.426 9.418 0 18.836 3.518 26.128 10.578 14.908 14.44 15.282 38.212 0.848 53.108l-88.344 91.2 216.212 216.21c38.23-50.792 60.922-113.914 60.922-182.24 0.002-167.43-136.216-303.652-303.648-303.652z" />
<glyph unicode="&#xe63d;" glyph-name="notes" d="M824.714 652.636l-203.028 203.006h-443.282v-818.152h662.596v598.836l-16.286 16.31zM234.074 93.158v706.814h314.788c82.69 0 42.846-196.012 42.846-196.012s191.172 46.458 193.644-41.198v-469.604h-551.278zM303.834 311.312h407.448v-59.43h-407.448v59.43zM303.834 426.686h407.448v-59.432h-407.448v59.432zM303.834 542.058h407.448v-59.43h-407.448v59.43z" />
<glyph unicode="&#xe63e;" glyph-name="on-hold" d="M503.666 869.272c-224.366 0-406.276-181.912-406.276-406.308 0-224.458 181.912-406.306 406.276-406.306 224.402 0 406.278 181.85 406.278 406.306 0 224.398-181.878 406.308-406.278 406.308zM220.738 462.964c0 156.024 126.932 282.958 282.926 282.958 32.842 0 64.384-5.642 93.73-15.972l-268.938-489.020c-65.564 51.876-107.718 132.126-107.718 222.034zM503.666 179.972c-29.388 0-57.744 4.51-84.414 12.868l267.278 485.87c61.176-51.944 100.060-129.38 100.060-215.744 0-156.030-126.864-282.994-282.924-282.994z" />
<glyph unicode="&#xe63f;" glyph-name="pause" d="M578.67 778.4h166.206v-659.158h-166.206v659.158zM273.196 778.392h166.206v-659.146h-166.206v659.146z" />
<glyph unicode="&#xe640;" glyph-name="pending" d="M622.274 580.164c2.162 2.484 3.792 5.102 4.776 6.8v37.898h-229.438v-37.898c0.46-0.79 1.048-1.84 1.766-2.882 3.336-5.1 9.81-11.254 13.67-13.464l59.322-37.38c13.734-8.67 26.486-20.188 36.104-35.228 1.306-2.092 2.614-4.244 3.86-6.536 1.242 2.292 2.484 4.444 3.856 6.536 9.682 15.12 22.434 26.616 36.106 35.228l59.318 37.38c2.872 1.698 7.258 5.524 10.66 9.546zM660.34 488.458c16.872 10.736 30.802 24.792 41.592 40.292 10.464 15.628 18.576 32.118 18.97 52.646v140.494h27.402v104.644h-471.95v-104.644h27.404v-140.494c0.396-20.466 8.57-37.018 18.968-52.646 10.79-15.5 24.656-29.556 41.532-40.292l57.428-36.098c2.026-1.302 3.198-2.352 3.986-3.132-0.79-0.86-1.96-1.966-3.986-3.214l-57.428-36.13c-16.876-10.692-30.742-24.792-41.532-40.22-10.398-15.664-18.572-32.216-18.968-52.748v-142.682h-27.404v-104.616h471.954v104.616h-27.402v142.682c-0.394 20.532-8.506 37.084-18.97 52.748-10.726 15.498-24.72 29.534-41.592 40.22l-57.426 36.13c-1.96 1.248-3.208 2.354-3.988 3.214 0.782 0.78 2.028 1.83 3.988 3.132l57.422 36.098zM570.274 394.15l57.43-36.168c8.566-5.294 17.66-14.248 23.738-23.082 6.28-8.702 8.502-17.592 8.11-17.986v-142.682h-32.502v2.974c-0.392 0.86-1.048 1.874-1.764 2.952-3.338 5.070-9.876 11.248-13.674 13.466l-59.318 37.348c-13.672 8.626-26.424 20.14-36.106 35.258-1.374 2.088-2.614 4.242-3.856 6.468-1.248-2.226-2.552-4.448-3.86-6.508-9.682-15.078-22.37-26.592-36.104-35.218l-59.256-37.348c-2.942-1.766-7.388-5.554-10.658-9.554-2.16-2.476-3.862-5.098-4.844-6.864v-2.974h-32.506v142.682c-0.458 0.394 1.834 9.286 8.114 17.986 6.016 8.834 15.11 17.788 23.674 23.082l57.488 36.168c18.842 11.642 33.36 31.602 33.292 55.078 0.066 23.414-14.452 43.388-33.292 54.99l-57.488 36.178c-8.564 5.33-17.658 14.324-23.674 23.090-6.28 8.664-8.572 17.59-8.114 17.91v140.494h294.446v-140.494c0.392-0.32-1.83-9.246-8.11-17.91-6.016-8.766-15.172-17.76-23.738-23.090l-57.43-36.178c-18.898-11.602-33.354-31.576-33.354-54.99 0.002-23.476 14.458-43.436 33.356-55.078z" />
<glyph unicode="&#xe641;" d="M747.452 779.288h-121.472c0.066 2.204 0.132 4.338 0.132 6.542 0 60.736-44.262 109.88-98.914 109.88-54.632 0-98.968-49.144-98.968-109.88 0-2.204 0.17-4.338 0.204-6.542h-121.47v-113.846h440.488v113.846zM527.2 736.376c-24.606 0.070-44.436 22.168-44.502 49.452 0.066 27.318 19.898 49.416 44.502 49.482 24.552-0.066 44.552-22.164 44.552-49.482 0-27.284-20-49.38-44.552-49.452zM791.72 709.228v-95.984h-528.99v95.984h-49.042v-680.228h627.036v680.228h-49.004z" />
<glyph unicode="&#xe642;" d="M719.796 538.952c-133.876-85.75-230.93-194.002-274.514-248.298l-106.866 87.512-47.21-39.756 184.646-196.276c31.724 85.072 132.368 251.352 255.262 369.466l-11.318 27.352z" />
<glyph unicode="&#xe643;" glyph-name="print" d="M263.658 876.108h490.862v-140.918h-490.862v140.918zM903.46 684.408h-788.742c-23.494 0-42.544-19.052-42.544-42.548v-313h128.172v190.010h617.498v-190.010h128.166v313c-0.002 23.496-19.056 42.548-42.55 42.548zM853.58 580.090c-18.792 0-34.024 15.24-34.024 34.034 0 18.792 15.23 34.026 34.024 34.026 18.796 0 34.034-15.234 34.034-34.026 0-18.794-15.236-34.034-34.034-34.034zM718.23 447.132v-375.304h-205.416c-74.402 0-38.548 176.354-38.548 176.354s-172-41.794-174.212 37.068v161.882h-50.078v-228.064l197.316-197.324h321.012v425.388h-50.074z" />
<glyph unicode="&#xe644;" glyph-name="quote" d="M272.424 201.466l212.104 96.046 300.428 300.422-52.81 52.886-181.038-181.034-31.688 31.782 180.968 180.972-32.408 32.434-300.488-300.482-95.068-213.026zM422.23 402.946l46.568 46.562 6.708-44.44 44.016-6.248-46.566-46.624-92.352-41.984 41.626 92.734zM937.432 750.364l-117.056 117.036-99.51-99.57 117.008-117.006 99.558 99.54zM702.714 395.546h165.652v-232.89h-742.508v232.89h177.438v61.294h-238.72v-355.464h865.072v355.468h-226.934v-61.298z" />
<glyph unicode="&#xe645;" glyph-name="reassign" d="M846.88 243.588c-24.098 37.604-105.062 60.918-185.124 94.332-80.092 33.384-99.066 44.952-99.066 44.952l-0.782 76.834c0 0 30.008 23.108 39.316 95.426 18.802-5.484 38.47 27.936 39.558 45.592 1.058 16.898-2.588 64.026-25.484 59.324 4.692 35.4 8.042 67.28 6.444 84.154-6.002 61.768-66.772 126.912-160.234 126.912-93.452 0-154.228-65.144-160.206-126.912-1.63-16.874 1.714-48.752 6.416-84.154-22.898 4.702-26.542-42.426-25.48-59.324 1.062-17.658 20.75-51.078 39.546-45.592 9.3-72.32 39.308-95.426 39.308-95.426l-0.768-76.834c0 0-18.97-11.566-99.106-44.952-80.086-33.414-161-56.728-185.072-94.332-21.608-33.692-15.116-195.37-15.116-195.37h800.904c0.012 0 6.522 161.678-15.054 195.37zM673.916 455h135.084v-89.334l165.91 136.932-165.91 136.93v-89.336h-135.084z" />
<glyph unicode="&#xe646;" glyph-name="receive" d="M817.98 159.992c-35.542 0-64.366-28.81-64.366-64.36 0-35.554 28.82-64.376 64.366-64.376 35.548 0 64.372 28.818 64.372 64.376 0 35.55-28.82 64.36-64.372 64.36zM311.7 159.992c-35.548 0-64.36-28.81-64.36-64.36 0-35.554 28.81-64.376 64.36-64.376 35.552 0 64.374 28.818 64.374 64.376-0.002 35.55-28.822 64.36-64.374 64.36zM773.432 416.91l146.842 146.834v200.87h-630.44l-36.716 100.196h-106.124c-26.272 0-47.578-21.294-47.578-47.578 0-26.268 21.306-47.568 47.578-47.568h39.65l128.1-349.588-68.21-211.444h618.068c26.266 0 47.562 21.298 47.562 47.57 0 26.286-21.296 47.582-47.562 47.582h-487.394l36.492 113.124 359.732 0.002z" />
<glyph unicode="&#xe647;" glyph-name="rejected" d="M803.716 545.896c0 36.83-6.866 66.73-43.722 66.73h-0.276c27.548 4.7 33.074 31.322 33.074 63.608 0 35.55-6.624 64.39-42.208 64.39h-30.568c24.114 6.826 29.124 32.71 29.124 63.708 0 36.178-6.746 65.516-42.916 65.516h-308.598c-101.63 0-184.034-82.39-184.034-184.034v-196.406c0-72.080 39.872-129.252 102.546-153.67 48.788-32.074 147.042-108.458 167.976-214.614v-80.088c0 0 137.252-14.904 137.252 114.124 0 151.958-95.666 176.652-19.504 180.354h113.6c40.13 0 47.582 32.534 47.582 72.674 0 34.852-5.648 63.916-33.398 70.98h30.346c36.86 0 43.724 29.866 43.724 66.728z" />
<glyph unicode="&#xe648;" glyph-name="reports" d="M55 869h288v-916h-288v916zM393 531h290v-578h-290v578zM733 435h238v-482h-238v482z" />
<glyph unicode="&#xe649;" glyph-name="route" d="M930.486 461.162l-404.152 404.060c-9.454 9.49-24.85 9.566-34.284 0l-404.134-404.060c-9.436-9.492-9.436-24.776 0-34.34l404.134-404.116c4.708-4.768 10.91-7.122 17.076-7.122 6.24 0 12.424 2.354 17.134 7.122l34.508 34.452 369.716 369.664c4.542 4.596 7.044 10.688 7.044 17.148 0.004 6.468-2.5 12.634-7.042 17.192zM575.718 378.768v72.23h-105.584v-186.912h-86.114v268.634h0.186v4.598h191.51v73.054l157.97-115.842-157.968-115.762z" />
<glyph unicode="&#xe64a;" glyph-name="save" d="M519.5 284.25h-86.124v-86.126h86.124zM175.002 801v-689h602.874l86.124 86.124v602.876h-688.998zM648.688 155.062h-258.376v172.25h258.376v-172.25zM734.812 456.5h-430.624v301.436h430.624v-301.436z" />
<glyph unicode="&#xe64b;" glyph-name="scheduled" d="M510.338 884.568c240.796 0 435.998-195.204 435.998-435.998 0-240.79-195.202-435.992-435.998-435.992-240.794 0-435.996 195.208-435.996 435.992 0 240.794 195.202 435.998 435.996 435.998zM510.338 752.222c-167.432 0-303.652-136.216-303.652-303.652 0-167.43 136.22-303.652 303.652-303.652s303.65 136.222 303.65 303.652c0 167.436-136.218 303.652-303.65 303.652zM571.25 271.14l-116.468 120.226v242.008c0 20.742 16.808 37.552 37.558 37.552 20.742 0 37.56-16.81 37.56-37.552l-0.012-211.584 95.308-98.388c14.434-14.894 14.060-38.668-0.848-53.108-7.292-7.060-16.71-10.578-26.128-10.578-9.804-0.002-19.606 3.816-26.97 11.424z" />
<glyph unicode="&#xe64c;" glyph-name="search" d="M892.976 207.748l-138.254 145.672c25.734 48.178 40.72 103.62 40.72 162.668 0 183.090-141.338 331.87-314.87 331.87-173.634 0-314.96-148.78-314.96-331.87 0-182.842 141.326-331.77 314.96-331.77 64.88 0 125.352 20.92 175.474 56.53l134.188-141.39c14.174-14.936 32.752-22.332 51.37-22.332 18.576 0 37.194 7.396 51.372 22.332 28.356 30.018 28.356 78.412 0 108.29zM262.476 516.088c0 126.8 97.88 229.818 218.1 229.818 120.108 0 218.006-103.018 218.006-229.818 0-126.558-97.898-229.718-218.006-229.718-120.222 0.002-218.1 103.162-218.1 229.718z" />
<glyph unicode="&#xe64d;" glyph-name="send_attachment" d="M391.046 481.734h54.966l52.276 52.27c15.97 15.94 23.872 37.194 23.824 58.016 0 22.164-8.748 44.41-25.598 61.292-16.904 16.896-39.172 25.65-61.324 25.63-20.836 0.048-42.092-7.854-58.028-23.844l-212.256-212.252 40.668-40.668 212.268 212.274c4.662 4.626 10.574 6.93 17.346 6.988 7.138-0.020 14.648-2.792 20.64-8.788 5.978-5.982 8.76-13.49 8.76-20.634-0.042-6.778-2.344-12.696-6.964-17.352l-249.596-249.58c-12.304-12.27-28.302-18.364-45.302-18.416-18.014 0.022-36.552 7.056-51.030 21.522-14.494 14.5-21.538 33.046-21.556 51.060 0.054 17 6.15 33.004 18.42 45.298l330.91 330.91c19.694 19.672 45.468 29.448 72.398 29.502 28.568-0.022 57.846-11.22 80.562-33.942 22.706-22.712 33.91-51.978 33.918-80.528-0.042-26.942-9.822-52.724-29.492-72.43l-116.33-116.33h81.334l75.656 75.658c31.010 30.99 46.39 72.096 46.346 113.102 0.008 43.566-17.164 87.588-50.754 121.196-33.624 33.614-77.666 50.792-121.24 50.776-40.99 0.056-82.11-15.332-113.080-46.346l-330.89-330.908c-23.596-23.556-35.314-54.882-35.268-85.962-0.010-33.012 13.016-66.332 38.398-91.71 25.368-25.372 58.676-38.382 91.698-38.376v-0.002h0.178c31.016-0.004 62.256 11.706 85.782 35.25l142.36 142.36v54.964zM391.046 392.256l-87.774-87.774 40.668-40.666 47.106 47.102zM901.564 437.606l-423.92 0.154 220.748-188.948zM699.714 183.942l-262.346 224.548v-305.838h501.776v303.768z" />
<glyph unicode="&#xe64e;" glyph-name="send_invoice" d="M449.434 479.422l63.8-0.024c-5.152 6.368-10.934 12.434-17.352 18.194-24.624 21.726-73.622 42.394-147.004 61.946v104.766c12.552-6.76 21.542-13.462 26.978-20.096 5.426-6.638 11.524-18.528 18.28-35.666l134.696 21.362c-8.688 38.62-27.336 69.036-55.94 91.244s-69.944 35.004-124.012 38.382v35.846h-52.876v-35.848c-59.378-3.138-104.102-19.13-134.154-48.006s-45.078-64.814-45.078-107.808c0-31.38 7.482-58.024 22.446-79.87 14.966-21.876 32.648-37.75 53.048-47.674 20.394-9.894 54.976-21.606 103.736-35.154v-127.928c-16.896 8.208-29.030 17.622-36.392 28.242-7.362 10.622-13.216 27.878-17.558 51.776l-146.282-17.018c4.342-24.136 10.86-44.716 19.55-61.734 8.688-17.020 21.064-32.884 37.116-47.614 16.052-14.726 35.122-26.254 57.208-34.58 22.086-8.33 50.872-14.062 86.358-17.202v-68.434h52.876v68.434c29.692 1.208 54.792 5.132 75.31 11.77 8.62 2.788 17.032 6.3 25.244 10.52v242.174zM296.002 572.994c-15.268 5.308-25.98 11.918-32.090 19.794-6.126 7.876-9.188 17.168-9.188 27.848 0 10.168 3.020 19.040 9.052 26.556 6.034 7.51 16.776 13.818 32.226 18.916v-93.114zM393.96 332.154c-9.538-10.536-24.56-18.106-45.080-22.694v116.2c23.444-8.21 39.194-17.11 47.25-26.646 8.088-9.598 12.13-20.064 12.13-31.438 0-13.062-4.766-24.864-14.3-35.422zM914.016 442.020l-385.2 0.14 200.582-171.688zM730.602 211.528l-238.38 204.038v-277.902h455.938v276.020z" />
<glyph unicode="&#xe64f;" glyph-name="send_job" d="M329.116 531.164h165.334v-58.624h278.618v123.074c0 19.436-15.764 35.2-35.206 35.2h-129.81v45.292c-0.016 41.282-33.44 74.708-74.72 74.726h-243.566c-41.272-0.020-74.7-33.444-74.722-74.726v-45.292h-129.838c-19.44 0-35.206-15.764-35.206-35.2v-130.546h279.116v66.096zM265.98 676.106c0.022 13.124 10.66 23.764 23.786 23.788h243.568c13.132-0.024 23.762-10.662 23.792-23.788v-45.292h-291.146v45.292zM370.322 489.832h82.462v-122.676h-82.462v122.676zM492.27 325.612h-163.154v96.992h-278.656v-286.398h441.81zM928.13 418.172l-352.216 0.128 183.406-156.984zM760.42 207.418l-217.966 186.566v-254.106h416.896v252.386z" />
<glyph unicode="&#xe650;" glyph-name="settings" d="M940.668 410.018v98.098l-13.826 4.544-105.034 34.294-28.042 67.63 53.872 113.968-69.368 69.4-13.010-6.566-98.502-50.044-67.63 28.010-42.54 118.698h-98.1l-4.51-13.882-34.298-105.002-67.626-28.010-114.002 53.842-69.368-69.37 6.598-12.978 50.014-98.53-27.996-67.596-118.724-42.51v-98.126l13.862-4.544 105.034-34.266 28.012-67.658-53.858-113.968 69.354-69.398 111.512 56.612 67.644-28.008 42.496-118.702h98.094l4.542 13.91 34.292 104.948 67.658 28.068 113.97-53.896 69.398 69.4-6.594 13.008-50.044 98.466 28.010 67.658 118.71 42.5zM509.642 319.646c-75.86 0-137.382 61.46-137.382 137.368 0 75.874 61.526 137.374 137.382 137.374 75.86 0 137.36-61.496 137.36-137.374-0.006-75.904-61.502-137.368-137.36-137.368z" />
<glyph unicode="&#xe651;" glyph-name="supplier" d="M759.496 116.29c-32.388 0-58.642-26.226-58.642-58.648 0-32.384 26.254-58.64 58.642-58.64 32.392 0 58.644 26.256 58.644 58.64 0.002 32.42-26.25 58.648-58.644 58.648zM298.136 116.29c-32.39 0-58.644-26.226-58.644-58.648 0-32.384 26.254-58.64 58.644-58.64 32.418 0 58.672 26.256 58.672 58.64 0 32.42-26.254 58.648-58.672 58.648zM718.896 350.406l133.794 133.824v183.032h-89.714l-216.98-242-209.042 242h-58.738l-33.47 91.318h-96.684c-23.924 0-43.358-19.376-43.358-43.356 0-23.924 19.434-43.358 43.358-43.358h36.138l116.72-318.558-62.168-192.668h563.252c23.922 0 43.33 19.408 43.33 43.33 0 23.98-19.408 43.358-43.33 43.358h-444.174l33.272 103.080h327.794zM343.844 722.216l199.286-241.506 199.344 241.506h-130.018v139.108h-138.596v-139.108z" />
<glyph unicode="&#xe652;" glyph-name="sync" d="M406.894 554.138l-109.134 109.134c55.006 54.346 130.364 87.826 213.854 87.826 84.26-0.028 159.944-33.968 215.244-89.154 55.188-55.298 89.122-130.986 89.156-215.258h132.354c-0.048 241.248-195.522 436.722-436.752 436.77-119.792 0-228.554-48.406-307.448-126.588l-100.722 100.72 0.006-303.45h303.442zM727.98 232.66c-55.208-55.836-131.618-90.368-216.366-90.352-84.278 0.016-159.956 33.96-215.246 89.148-55.202 55.29-89.128 130.962-89.162 215.228h-132.336c0.036-241.228 195.504-436.694 436.746-436.75 121.080 0.016 230.866 49.46 309.958 129.124l97.994-98v296.096h-296.086l104.498-104.494z" />
<glyph unicode="&#xe653;" glyph-name="target" d="M513.77 645.356c-103.382-0.184-187.108-84.208-186.924-187.632 0.236-103.356 84.276-187.054 187.658-186.82 103.384 0.172 187.082 84.17 186.872 187.552-0.158 103.424-84.156 187.11-187.606 186.9zM985.836 485.68l-111.744-0.184c-13.422 177.96-155.966 319.928-333.98 332.694l-0.208 111.81-53.37-0.104 0.184-111.838c-177.908-13.446-319.876-155.966-332.64-333.952l-111.772-0.234 0.078-53.318 111.772 0.21c13.474-177.936 155.994-319.876 334.030-332.642l0.156-111.888 53.372 0.078-0.234 111.888c177.958 13.448 319.9 155.966 332.718 333.978l111.796 0.184-0.158 53.318zM514.688 150.156c-169.834-0.342-308.21 137.538-308.526 307.358-0.366 169.846 137.54 308.304 307.384 308.644 169.846 0.316 308.302-137.59 308.59-307.462 0.368-169.82-137.614-308.226-307.448-308.54z" />
<glyph unicode="&#xe654;" glyph-name="task" d="M871.768 647.852c-16.434 18.234-23.040 41.836-20.324 64.42l-27.566 30.602c0 0-166.708 212.9-380.122 105.546l9.166-12.798 77.908 7.96-65.2-25.704 11.144-15.564c86.682 8.446 238.458-61.572 183.998-122.954l-158.954-143.154-0.302 0.346c-10.944-9.38-23.678-15.348-36.934-18.006l-426.65-350.664 120.818-134.134 392.382 386.906c4.122 14.026 11.958 27.142 23.618 37.642 1.448 1.306 2.97 2.468 4.492 3.654l170.442 153.494c20.81-1.138 42.722-8.804 57.776-25.516 15.72-17.45 22.438-39.812 20.606-61.51l45.418-50.428 104.336 93.956-44.102 48.972c-22.744-0.342-45.53 8.692-61.95 26.934z" />
<glyph unicode="&#xe655;" glyph-name="timesheet" d="M522.852 682.67c150.974 0 273.398-122.388 273.398-273.396 0-151.086-122.424-273.472-273.398-273.472-151.030 0-273.43 122.386-273.43 273.472-0.002 151.008 122.4 273.396 273.43 273.396zM522.852 599.694c-105.016 0-190.438-85.422-190.438-190.42 0-105 85.422-190.46 190.438-190.46 105 0 190.386 85.46 190.386 190.46 0 104.998-85.386 190.42-190.386 190.42zM564.192 299.934c4.596-4.858 10.792-7.196 16.904-7.196 5.898 0 11.828 2.19 16.354 6.636 9.416 9.086 9.64 23.958 0.592 33.294l-59.768 61.698v132.728c0 13.050-10.566 23.582-23.58 23.582-12.992 0-23.542-10.53-23.542-23.582v-151.792l73.040-75.368zM652.1 895.41l-17.646 17.612h-479.858v-926.824h717.254v689.426l-219.75 219.786zM811.602 46.482h-596.756v806.292h340.708c89.54 0 84.458-174.258 84.458-174.258s168.916 12.348 171.59-82.568v-549.466z" />
<glyph unicode="&#xe656;" glyph-name="tools" d="M902.552 217.122l-338.13 333.354c-1.502 1.486-3.136 2.816-4.71 4.262 23.114 83.16 2.052 176.018-63.334 241.418-64.908 64.91-156.888 86.126-239.572 63.804l140.098-140.084-36.768-137.268-137.27-36.77-140.1 140.088c-22.32-82.666-1.084-174.692 63.826-239.598 68.158-68.144 166.206-88.146 251.95-60.122 0.288-0.268 0.496 2.016 0.778 1.75l338.17-335.908c22.776-22.81 52.664-34.22 82.548-34.22 29.888 0 59.78 11.41 82.514 34.22 45.626 45.604 45.626 119.484 0 165.074z" />
<glyph unicode="&#xe657;" glyph-name="transfer" d="M676.202 308.15l295.658 244.002-295.658 244.046v-159.208h-296.542v-169.634h296.542v-159.206zM347.178 579.754l-295.68-244.006 295.68-244.042v159.212h296.676v169.662h-296.676v159.174z" />
<glyph unicode="&#xe658;" glyph-name="trash" d="M304.99 751.072c0-49.402 0 0 0 0v-98.796h108.422v98.796h162.556v-98.796h108.462v98.796c0 0 0-49.4 0 0 0 98.796-54.276 98.796-108.462 98.796-54.196 0-54.196 0-162.556 0-108.422 0-108.422-49.398-108.422-98.796zM847.006 700.67c0 0.55-0.452 1-1 1h-702.592c-0.55 0-1-0.45-1-1v-96.794c0-0.55 0.45-1 1-1h52.192c0.55 0 1-0.45 1-1v-541.38c0-0.55 0.45-1 1-1h594.208c0.55 0 1 0.45 1 1v541.38c0 0.55 0.452 1 1 1h52.192c0.548 0 1 0.45 1 1v96.794zM359.222 159.292c0-0.55-0.45-1-1-1h-52.23c-0.55 0-1 0.45-1 1v413.66c0 0.55 0.45 1 1 1h52.23c0.55 0 1-0.45 1-1v-413.66zM521.774 159.292c0-0.55-0.45-1-1-1h-52.168c-0.55 0-1 0.45-1 1v413.66c0 0.55 0.45 1 1 1h52.168c0.55 0 1-0.45 1-1v-413.66zM684.432 159.292c0-0.55-0.452-1-1-1h-52.276c-0.548 0-1 0.45-1 1v413.66c0 0.55 0.452 1 1 1h52.276c0.548 0 1-0.45 1-1v-413.66z" />
<glyph unicode="&#xe659;" glyph-name="travel" d="M266.488 290.312c-43.916 0-79.746-38.286-79.746-85.414s35.828-85.48 79.746-85.48c44.016 0 79.758 38.352 79.758 85.48s-35.742 85.414-79.758 85.414zM578.434 779.416h-454.344c-27.422 0-49.596-23.816-49.596-53.158v-490.308h64.266c13.188 62.434 65.424 109.226 127.728 109.226 62.368 0 114.574-46.792 127.694-109.226h202.322c5.216 24.334 16.21 46.356 31.556 64.076v426.234c0.002 29.342-22.222 53.156-49.626 53.156zM882.856 684.122h-201.31v-346.596c13.356 4.908 27.722 7.652 42.736 7.652 61.506 0 113.198-45.586 127.184-107.002h103.030v259.91l-71.64 186.036zM784.28 487.586l-48.602 141.67h112.964l54.512-141.67h-118.874zM724.282 290.312c-44.098 0-79.84-38.286-79.84-85.414s35.742-85.48 79.84-85.48c44.002 0 79.846 38.352 79.846 85.48s-35.844 85.414-79.846 85.414z" />
<glyph unicode="&#xe65a;" glyph-name="travelstart" d="M266.488 290.312c-43.916 0-79.746-38.286-79.746-85.414s35.828-85.48 79.746-85.48c44.016 0 79.758 38.352 79.758 85.48s-35.742 85.414-79.758 85.414zM578.434 779.416h-454.344c-27.422 0-49.596-23.816-49.596-53.158v-490.308h64.266c13.188 62.434 65.424 109.226 127.728 109.226 62.368 0 114.574-46.792 127.694-109.226h202.322c5.216 24.334 16.21 46.356 31.556 64.076v426.234c0.002 29.342-22.222 53.156-49.626 53.156zM262.234 410.364v267.812l235.658-133.898-235.658-133.914zM882.856 684.122h-201.31v-346.596c13.356 4.908 27.722 7.652 42.736 7.652 61.506 0 113.198-45.586 127.184-107.002h103.030v259.91l-71.64 186.036zM784.28 487.586l-48.602 141.67h112.964l54.512-141.67h-118.874zM724.282 290.312c-44.098 0-79.84-38.286-79.84-85.414s35.742-85.48 79.84-85.48c44.002 0 79.846 38.352 79.846 85.48s-35.844 85.414-79.846 85.414z" />
<glyph unicode="&#xe65b;" glyph-name="travelstop" d="M268.266 304.586c-44.326 0-80.474-38.274-80.474-85.402s36.148-85.488 80.474-85.488c44.416 0 80.476 38.36 80.476 85.488s-36.060 85.402-80.476 85.402zM583.048 793.694h-458.474c-27.67 0-50.048-23.822-50.048-53.15v-490.314h64.854c13.298 62.442 66.014 109.226 128.886 109.226 62.918 0 115.594-46.786 128.848-109.226h204.18c5.25 24.342 16.35 46.358 31.844 64.076v426.238c0 29.328-22.466 53.15-50.090 53.15zM475.124 458.862h-244.452v218.55h244.452v-218.55zM890.228 698.4h-203.124v-346.598c13.426 4.902 27.972 7.654 43.12 7.654 62.056 0 114.214-45.584 128.33-106.988h103.972v259.906l-72.298 186.026zM790.732 501.882l-49.062 141.65h114.042l55.002-141.65h-119.982zM730.224 304.586c-44.496 0-80.562-38.274-80.562-85.402s36.066-85.488 80.562-85.488c44.414 0 80.56 38.36 80.56 85.488s-36.146 85.402-80.56 85.402z" />
<glyph unicode="&#xe65c;" glyph-name="user" d="M943.318 169.032c-14.458 41.904-62.328 47.926-102.304 64.788-43.908 18.512-92.6 40.016-136.404 57.978-12.502 3.406-25.012 6.82-37.51 10.23-14.928 10.27-29.542 44.402-37.524 61.376-7.954 1.134-15.9 2.274-23.876 3.4 1.236 26.26 17.49 27.668 23.876 47.738 5.624 17.69 0.59 40.698 9.51 57.076 6.192 11.376 20.19 11.454 27.18 21.208 6.35 8.848 10.528 24.282 12.5 35.118 3.61 19.818 6.758 46.922-2.646 66.574-5.412 11.284-8.826 12.366-10.33 26.074-1.832 16.606 4.898 70.778 5.176 82.486 0.684 30.388-0.048 32.846-7.408 62.444 0 0-8.924 26.82-22.924 34.894l-27.904 4.804-17.244 15.982c-69.486 42.758-143.984 12.772-183.88-3.408-57.494-18.652-93.846-74.94-68.466-195.214 4.332-20.544-11.248-29.73-10.228-40.938 2.228-24.51 2.7-83.442 25.858-97.952 2.156-1.352 18.586-5.468 18.478-4.344 2.28-23.864 4.546-47.754 6.816-71.62 5.782-15.86 19.656-17.606 23.69-40.012l-17.754-4.312c-7.982-16.972-22.596-51.106-37.52-61.376-12.504-3.414-25.014-6.824-37.514-10.23-43.802-17.964-92.496-39.468-136.4-57.98-39.984-16.86-87.852-22.88-102.304-64.786 0-28.468-2.682-95.7-1.948-132.984h870.95c0.736 37.288-1.946 104.516-1.946 132.986zM760.442 73.784h-155.074v68.212h155.074v-68.212z" />
<glyph unicode="&#xe65d;" glyph-name="warning" d="M520.984 847.162c-12.068 18.394-31.45 18.162-43.070-0.518l-437.234-702.79c-11.622-18.68-3.13-33.98 18.87-34l905.694-0.858c22-0.020 30.126 15.014 18.060 33.408l-462.32 704.758zM515.412 598.19c22 0 39.028-17.974 37.838-39.942l-9.73-179.666c-1.19-21.966-17.11-39.942-35.376-39.942s-34.188 17.974-35.376 39.942l-9.728 179.666c-1.19 21.968 15.836 39.942 37.836 39.942h14.536zM548.384 258.39c0-18.97-18-34.492-40-34.492h-0.482c-22 0-40 15.522-40 34.492s18 34.492 40 34.492h0.482c22 0 40-15.52 40-34.492z" />
<glyph unicode="&#xe65e;" glyph-name="zcost" d="M756.628 732.716l-178.772-28.408c-9.010 22.77-17.094 38.566-24.288 47.39-7.192 8.752-19.134 17.65-35.818 26.624v-138.98c97.448-26.034 162.45-53.398 195.122-82.248 43.306-38.862 64.888-88.030 64.888-147.728 0-34.932-7.75-66.97-23.286-96.118-15.536-29.218-35.376-53.622-59.59-73.124-24.214-19.576-49.914-33.744-77.164-42.566-27.218-8.826-60.52-14.014-99.97-15.646v-90.852h-70.162v90.852c-47.090 4.15-85.284 11.788-114.654 22.842-29.294 11.046-54.582 26.326-75.942 45.906-21.284 19.502-37.674 40.566-49.244 63.184-11.534 22.62-20.17 49.914-25.956 81.952l194.194 22.618c5.748-31.74 13.534-54.654 23.324-68.746 9.75-14.092 25.846-26.624 48.276-37.53v169.834c-64.704 18.022-110.648 33.52-137.718 46.648-27.068 13.128-50.502 34.262-70.378 63.334-19.876 28.926-29.814 64.298-29.814 105.978 0 57.032 19.95 104.792 59.848 143.060 39.9 38.342 99.23 59.626 178.062 63.78v47.536h70.196v-47.538c71.754-4.452 126.628-21.508 164.608-50.95 37.97-29.44 62.74-69.858 74.238-121.104zM447.59 780.77c-20.542-6.748-34.782-15.128-42.79-25.138-8.010-9.938-12.014-21.73-12.014-35.304 0-14.166 4.078-26.4 12.2-36.932 8.12-10.456 22.36-19.208 42.604-26.254v123.628zM517.786 307.396c27.218 6.078 47.166 16.092 59.81 30.108 12.684 13.944 19.024 29.664 19.024 47.020 0 15.052-5.376 28.996-16.128 41.68-10.676 12.682-31.596 24.474-62.74 35.376v-154.182h0.034zM642.304 23.85h127.446v-84.244l156.522 129.188-156.522 129.194v-84.324h-127.446z" />
<glyph unicode="&#xe65f;" glyph-name="zoom" d="M938.848 149.378l-162.046 162.064c-14.27 14.252-40.046 12.888-65.938-0.598l-70.726 70.638c92.132 120.328 83.418 293.086-26.692 403.21-119.798 119.782-314.178 119.782-434.052 0-119.822-119.91-119.822-314.236 0-434.072 110.158-110.070 282.938-118.768 403.232-26.652l70.652-70.658c-13.488-25.886-14.848-51.704-0.578-65.972l162.062-162.064c20.406-20.46 64.868-9.222 99.11 25.108 34.18 34.168 45.452 78.556 24.976 98.996zM225.054 396.208c-94.624 94.732-94.624 248.208 0 342.812 94.692 94.71 248.042 94.64 342.806 0 94.624-94.604 94.624-248.046 0-342.812-94.764-94.602-248.19-94.602-342.806 0zM424.008 587.21v157.836h-49.384v-157.836h-155.42v-49.342h155.42v-157.744h49.384v157.744h155.418v49.342z" />
<glyph unicode="&#xe660;" glyph-name="zprice" d="M756.628 732.716l-178.772-28.408c-9.010 22.77-17.094 38.566-24.288 47.39-7.192 8.752-19.134 17.65-35.818 26.624v-138.98c97.448-26.034 162.45-53.398 195.122-82.248 43.306-38.862 64.888-88.030 64.888-147.728 0-34.932-7.75-66.97-23.286-96.118-15.536-29.218-35.376-53.622-59.59-73.124-24.214-19.576-49.914-33.744-77.164-42.566-27.218-8.826-60.52-14.014-99.97-15.646v-90.852h-70.162v90.852c-47.090 4.15-85.284 11.788-114.654 22.842-29.294 11.046-54.582 26.326-75.942 45.906-21.284 19.502-37.674 40.566-49.244 63.184-11.534 22.62-20.17 49.914-25.956 81.952l194.194 22.618c5.748-31.74 13.534-54.654 23.324-68.746 9.75-14.092 25.846-26.624 48.276-37.53v169.834c-64.704 18.022-110.648 33.52-137.718 46.648-27.068 13.128-50.502 34.262-70.378 63.334-19.876 28.926-29.814 64.298-29.814 105.978 0 57.032 19.95 104.792 59.848 143.060 39.9 38.342 99.23 59.626 178.062 63.78v47.536h70.196v-47.538c71.754-4.452 126.628-21.508 164.608-50.95 37.97-29.44 62.74-69.858 74.238-121.104zM447.59 780.77c-20.542-6.748-34.782-15.128-42.79-25.138-8.010-9.938-12.014-21.73-12.014-35.304 0-14.166 4.078-26.4 12.2-36.932 8.12-10.456 22.36-19.208 42.604-26.254v123.628zM517.786 307.396c27.218 6.078 47.166 16.092 59.81 30.108 12.684 13.944 19.024 29.664 19.024 47.020 0 15.052-5.376 28.996-16.128 41.68-10.676 12.682-31.596 24.474-62.74 35.376v-154.182h0.034zM926.272 113.744h-127.448v84.244l-156.52-129.19 156.52-129.192v84.324h127.448z" />
</font>
</defs>
</svg>
